<svg id="Capa_1" enable-background="new 0 0 512 512" height="512" viewBox="0 0 512 512" width="512" xmlns="http://www.w3.org/2000/svg"><g><g><g><circle cx="256" cy="256" fill="#a160e4" r="256"/></g><path d="m360.361 117.415-18.345 18.345 22.863 22.863-4.727 4.791-45.999-45.999-18.345 18.345 46.123 46.123-28.882 29.275-93.743-93.743-20.068 20.068 93.878 93.878-3.015 3.056-117.003-117.002-19.12 19.12 117.132 117.132-139.03 140.919 117.33 117.331c2.19.055 4.387.083 6.59.083 137.113 0 249.045-107.796 255.684-243.263z" fill="#7a3eb4"/><g><path d="m379.921 394.585h-247.842v-193.281l125.379-36.321 122.463 36.321z" fill="#eef4ff"/><path d="m379.921 394.585h-122.463v-229.602l122.463 36.321z" fill="#d6e9f8"/><path d="m132.079 143.376h247.842v57.928h-247.842z" fill="#00ddc1"/><g><g><path d="m151.639 117.415h21.458v51.922h-21.458z" fill="#5a5a5a"/></g><g><path d="m197.847 117.415h21.458v51.922h-21.458z" fill="#5a5a5a"/></g></g><path d="m257.458 143.376h122.463v57.928h-122.463z" fill="#00baa0"/><g><g><path d="m292.695 117.415h21.458v51.922h-21.458z" fill="#464646"/></g><g><path d="m338.902 117.415h21.458v51.922h-21.458z" fill="#464646"/></g></g></g></g><g><circle cx="257.458" cy="294.524" fill="#ff6379" r="74.326"/><path d="m331.784 294.523c0-41.049-33.277-74.326-74.326-74.326v148.653c41.05 0 74.326-33.277 74.326-74.327z" fill="#ff1f3e"/><g><path d="m301.752 282.524h-32.294v-32.295h-23.999v32.295h-32.295v23.999h32.295v32.295h23.999v-32.295h32.294z" fill="#eef4ff"/><path d="m269.458 250.229h-12v88.589h12v-32.295h32.294v-23.999h-32.294z" fill="#d6e9f8"/></g></g></g></svg>