<svg id="Capa_1" enable-background="new 0 0 512 512" height="512" viewBox="0 0 512 512" width="512" xmlns="http://www.w3.org/2000/svg"><g><g><g><g><g><circle cx="256" cy="256" fill="#adcfff" r="256"/></g></g></g><path d="m116.391 390.567 120.739 120.739c6.231.454 12.522.694 18.87.694 141.385 0 256-114.615 256-256 0-7.066-.299-14.062-.861-20.983l-115.255-115.256z" fill="#8bbbff"/><path d="m116.391 119.761h279.493v270.806h-279.493z" fill="#eef4ff"/><path d="m256.137 119.761h139.746v270.806h-139.746z" fill="#d6e9f8"/><circle cx="339.152" cy="363.134" fill="#00baa0" r="10.476"/><circle cx="366.661" cy="363.134" fill="#ff1f3e" r="10.476"/><path d="m134.647 355.601h62.536v18.009h-62.536z" fill="#005fe0"/></g><g><path d="m376.647 333.461h-242v-75.237l2.637-7.428-2.637-7.542v-108.129h242z" fill="#464646"/><path d="m377.137 333.461h-121v-198.336h121v108.129l-5.153 7.148 5.153 7.852z" fill="#2d2d2d"/><path d="m190.631 154.957c-4.566-4.566-11.969-4.566-16.535 0l-2.383 2.383-2.383-2.383c-4.566-4.566-11.969-4.566-16.535 0s-4.566 11.969 0 16.535l18.918 18.918.596-.596 18.322-18.322c4.567-4.566 4.567-11.969 0-16.535z" fill="#ff6379"/><g><path d="m225.845 314.605c-3.396 0-6.378-2.287-7.25-5.585l-16.729-63.336-3.177 7.877c-1.145 2.836-3.897 4.694-6.956 4.694h-57.087v-15h52.026l9.727-24.112c1.209-2.996 4.199-4.873 7.425-4.679 3.225.202 5.957 2.446 6.782 5.57l14.464 54.764 23.431-109.827c.733-3.434 3.75-5.9 7.261-5.935h.075c3.48 0 6.508 2.396 7.302 5.792l14.901 63.694 10.873-28.72c1.123-2.966 3.974-4.915 7.162-4.843 3.171.063 5.96 2.113 6.965 5.122l14.427 43.176h59.669v15h-65.07c-3.226 0-6.091-2.063-7.113-5.123l-9.466-28.33-12.13 32.041c-1.168 3.085-4.211 5.05-7.509 4.828-3.292-.218-6.056-2.562-6.808-5.775l-12.866-54.998-22.992 107.77c-.724 3.395-3.684 5.85-7.155 5.933-.06.001-.121.002-.182.002z" fill="#00ddc1"/></g><path d="m377.137 243.254h-59.669l-14.427-43.176c-1.005-3.008-3.794-5.059-6.965-5.122-3.188-.071-6.039 1.877-7.162 4.843l-10.873 28.72-14.901-63.694c-.771-3.296-3.651-5.631-7.002-5.766v42.011l.037-.172 12.866 54.996c.751 3.213 3.515 5.557 6.808 5.775 3.298.222 6.341-1.743 7.509-4.828l12.13-32.041 9.466 28.33c1.022 3.06 3.887 5.123 7.113 5.123h65.07z" fill="#00baa0"/></g></g></svg>