<svg id="Capa_1" enable-background="new 0 0 512 512" height="512" viewBox="0 0 512 512" width="512" xmlns="http://www.w3.org/2000/svg"><g><g><circle cx="256" cy="256" fill="#a160e4" r="256"/></g><path d="m319.511 125.427-26.14-26.14 15.665 98.704-11.544 11.544-122.146-122.147-31.49 331.445 92.418 92.418c6.511.496 13.089.749 19.726.749 130.854 0 238.763-98.181 254.114-224.893l-187.906-187.907z" fill="#7a3eb4"/><path d="m175.239 168.215v-80.934c-20.029 7.493-34.292 26.799-34.292 49.443 0 .478.015.953.028 1.429h-.028v29.944c0 6.688 3.924 12.44 9.587 15.129v16.387l11.535 10.334 13.17-10.334z" fill="#d6e9f8"/><g><path d="m293.371 99.287-7.901 34.543 7.418 34.428h-.007l.423 1.928.59 2.738.01-.002 1.775 8.098-6.566 29.961-33.21 149.888c-4.65-4.974-10.806-8.626-17.96-10.133-18.542-3.909-36.809 8.003-40.715 26.548-1.892 8.983-.172 18.166 4.842 25.855s12.723 12.967 21.707 14.859c2.38.501 4.775.75 7.153.75 6.592 0 13.05-1.906 18.702-5.591 7.668-5 12.935-12.68 14.841-21.63h.002l3.679-16.604 14.559 3.066 3.092-14.678-14.406-3.034 32.657-147.394h3.726l2.407-22.313-2.407-24.412zm-43.559 289.071c-1.066 5.063-4.04 9.407-8.374 12.233s-9.51 3.795-14.571 2.729c-5.063-1.066-9.407-4.04-12.233-8.374-2.826-4.333-3.795-9.508-2.729-14.571 1.919-9.11 9.988-15.379 18.949-15.379 1.319 0 2.656.136 3.997.418 10.451 2.201 17.162 12.494 14.961 22.944z" fill="#d6e9f8"/><path d="m311.491 212.884 32.676 147.48-14.406 3.034 3.092 14.678 14.559-3.066 3.679 16.604h.002c1.906 8.95 7.173 16.63 14.841 21.63 5.652 3.685 12.11 5.591 18.702 5.591 2.377 0 4.772-.248 7.153-.75 8.983-1.892 16.692-7.169 21.707-14.859s6.734-16.872 4.842-25.855c-3.906-18.544-22.173-30.457-40.715-26.548-7.154 1.507-13.31 5.159-17.96 10.133l-33.42-150.839-.016.003-6.377-29.099 1.795-8.191v-.002l1.001-4.569h-.012l7.475-34.514-7.901-34.545-14.428 66.958v46.725h3.711zm69.222 152.615c1.341-.282 2.678-.418 3.997-.418 8.961 0 17.03 6.27 18.949 15.379 1.066 5.063.097 10.238-2.729 14.571-2.826 4.334-7.17 7.308-12.233 8.374-5.061 1.067-10.236.097-14.571-2.729-4.334-2.826-7.308-7.17-8.374-12.232-2.201-10.45 4.51-20.743 14.961-22.945z" fill="#b2d7f3"/><g><circle cx="307.763" cy="190.571" fill="#464646" r="6.147"/><path d="m313.91 190.571c0 3.395-2.752 6.147-6.147 6.147v-12.294c3.395 0 6.147 2.752 6.147 6.147z" fill="#2d2d2d"/></g></g><path d="m175.239 87.281c-5.758 2.154-11.035 5.288-15.637 9.193v108.343l15.559-5.144.078-.061v-31.397z" fill="#b2d7f3"/><g><path d="m159.601 418.833h-15.744v-219.221h15.744l15.745 109.61z" fill="#b2d7f3"/><path d="m159.601 199.612h15.745v219.221h-15.745z" fill="#8bbbff"/></g></g></svg>