<svg id="Capa_1" enable-background="new 0 0 512 512" height="512" viewBox="0 0 512 512" width="512" xmlns="http://www.w3.org/2000/svg"><g><g><g><g><circle cx="256" cy="256" fill="#ffe377" r="256"/></g></g><path d="m511.999 255.95c-.001-1.539-.031-3.071-.058-4.604l-125.785-125.784-73.563 73.563 83.933 83.934-21.748 5.736-126.449-126.45-48.544 10.57-19.996 67.458 35.403 35.403-13.623 14.906-86.61-86.61v163.668l-23.596 20.816 119.468 119.468c14.663 2.612 29.757 3.976 45.169 3.976 28.719 0 56.333-4.729 82.107-13.451 1.983-.671 3.954-1.365 5.915-2.083 7.842-2.871 15.504-6.115 22.965-9.71 52.228-25.166 94.603-67.541 119.769-119.769 3.595-7.461 6.839-15.123 9.71-22.965.718-1.96 1.412-3.932 2.083-5.915 8.722-25.774 13.451-53.388 13.451-82.107 0-.017-.001-.033-.001-.05z" fill="#edbe00"/><g><g><circle cx="349.376" cy="162.345" fill="#ff6379" r="52.017"/><path d="m401.393 162.345c0-28.728-23.289-52.017-52.017-52.017v104.035c28.728-.001 52.017-23.289 52.017-52.018z" fill="#ff1f3e"/><g><path d="m380.375 153.947h-22.601v-22.601h-16.796v22.601h-22.601v16.796h22.601v22.602h16.796v-22.602h22.601z" fill="#eef4ff"/><path d="m357.774 131.346h-8.398v61.999h8.398v-22.602h22.601v-16.796h-22.601z" fill="#d6e9f8"/></g></g><g><path d="m91.363 204.073h23.596v184.485h-23.596z" fill="#005fe0"/><path d="m234.895 205.968h23.596v277.897h-23.596z" fill="#005fe0" transform="matrix(0 -1 1 0 -98.223 591.61)"/><g><path d="m248.329 388.558h-15v-211.213h-29.768v14.819h-15v-29.819h59.768z" fill="#464646"/></g><path d="m179.481 192.164h33.161v48.547h-33.161z" fill="#2681ff" transform="matrix(-1 0 0 -1 392.123 432.875)"/><path d="m114.959 231.949v53.785h53.785c.001-29.704-24.08-53.785-53.785-53.785z" fill="#00ddc1"/><path d="m114.959 285.735h266.682v47.384h-266.682z" fill="#eef4ff"/><path d="m381.641 366.05-187.818-.638v-80.471h187.818z" fill="#00ddc1"/><path d="m186.509 275.777h61.819v89.72h-61.819z" fill="#4ef8da"/><path d="m377.797 256.558h23.596v132.001h-23.596z" fill="#0051be"/></g></g></g><path d="m196.061 192.164h16.58v48.547h-16.58z" fill="#0051be" transform="matrix(-1 0 0 -1 408.703 432.875)"/></g></svg>