<svg id="Capa_1" enable-background="new 0 0 512 512" height="512" viewBox="0 0 512 512" width="512" xmlns="http://www.w3.org/2000/svg"><g><g><g><g><g><circle cx="256" cy="256" fill="#ff9e22" r="256"/></g></g></g></g><path d="m130.543 400.676 110.904 110.904c4.818.27 9.668.42 14.553.42 141.385 0 256-114.615 256-256 0-3.584-.093-7.146-.239-10.695l-133.376-133.376z" fill="#e17726"/><g><g><path d="m130.543 111.929h247.842v288.746h-247.842z" fill="#2681ff"/><path d="m255.922 111.929h122.463v288.746h-122.463z" fill="#0051be"/><g><circle cx="255.922" cy="252.788" fill="#eef4ff" r="74.326"/><path d="m330.249 252.787c0-41.049-33.277-74.326-74.326-74.326v148.652c41.049.001 74.326-33.276 74.326-74.326z" fill="#d6e9f8"/><g><path d="m300.216 240.788h-32.294v-32.295h-23.999v32.295h-32.295v23.999h32.295v32.295h23.999v-32.295h32.294z" fill="#ff6379"/><path d="m267.922 208.493h-12v88.589h12v-32.295h32.294v-23.999h-32.294z" fill="#ff1f3e"/></g></g></g><path d="m360.652 235.054h35.466v35.466h-35.466z" fill="#8bbbff"/></g></g></svg>