<svg id="Capa_1" enable-background="new 0 0 512 512" height="512" viewBox="0 0 512 512" width="512" xmlns="http://www.w3.org/2000/svg"><g><g><g><g><g><g><circle cx="256" cy="256" fill="#ffe377" r="256"/></g></g></g></g><path d="m114.738 405.754 103.463 103.463c12.336 1.825 24.955 2.783 37.799 2.783 141.385 0 256-114.615 256-256 0-7.192-.312-14.31-.893-21.352l-112.632-112.631z" fill="#edbe00"/><g><path d="m342.085 404.54h-228.56v-282.523h64.462l16.585 6 13.652-6h95.552l13.652 6.211 16.585-6.211h64.462v226.132z" fill="#005fe0"/><path d="m349.175 404.54h-93.175v-282.523h47.776l13.652 6 16.585-6h64.462v233.222l-27.835 20.97z" fill="#0051be"/></g><g><path d="m235.153 335.237h-26.76l-15.741-2.001-15 2.001h-27.5l3.314-108.038-.567-105.182h25.088l16.585 6 13.652-6h26.929l-3.314 106.61z" fill="#2681ff"/></g><g><path d="m276.847 335.237h26.76l15.741-2.001 15.001 2.001h27.499l-3.314-108.038 3.314-105.182h-27.835l-16.585 6-13.652-6h-23.647l.032 106.61z" fill="#005fe0"/></g><g fill="#ff9e22"><path d="m123.398 378.332h15v15h-15z"/><path d="m148.321 378.332h40.479v15h-40.479z"/><path d="m123.398 355.517h65.403v15h-65.403z"/></g><path d="m349.175 404.54v-49.301h49.3z" fill="#2681ff"/></g><g><path d="m209.253 239.322c-.342.015-.688.023-1.029.023-5.84 0-11.38-2.224-15.598-6.261-.02-.02-.046-.044-.111-.044-.076 0-.144.032-.203.095-3.698 3.946-8.919 6.21-14.325 6.21-.239 0-.479-.004-.719-.013-2.571-.092-5.021-.688-7.254-1.689l7.638 25.384v72.209h15.001 15.741v-72.209l7.539-25.056c-2.104.775-4.347 1.247-6.68 1.351z" fill="#d6e9f8"/><g><path d="m208.224 185.342v-63.325h-30.237v69.432c0 3.958-2.363 7.501-5.976 9.115-5.322 2.377-8.967 7.832-8.673 14.102.348 7.42 6.419 13.539 13.837 13.939 7.04.38 13.643-4.237 15.478-10.603 2.921 6.728 9.344 11.303 17.304 10.542 8.558-.818 15.378-7.96 15.84-16.544.424-7.896-4.36-14.735-11.226-17.391-3.828-1.481-6.347-5.164-6.347-9.267z" fill="#d6e9f8"/></g><g fill="#b2d7f3"><path d="m214.57 194.608c-3.827-1.48-6.346-5.163-6.346-9.267v-63.325h-15.571v95.985c2.921 6.728 9.344 11.303 17.304 10.542 8.558-.818 15.378-7.96 15.84-16.544.424-7.896-4.36-14.735-11.227-17.391z"/><path d="m208.224 239.345c-5.828 0-11.356-2.216-15.571-6.237v102.128h15.741v-72.209l7.539-25.056c-2.103.774-4.347 1.246-6.679 1.351-.343.016-.69.023-1.03.023z"/></g></g><g><path d="m302.747 239.322c.342.015.688.023 1.029.023 5.84 0 11.38-2.224 15.598-6.261.02-.02.046-.044.111-.044.076 0 .144.032.203.095 3.698 3.946 8.919 6.21 14.325 6.21.238 0 .479-.004.719-.013 2.571-.092 5.021-.688 7.254-1.689l-7.638 25.384v72.209h-30.742v-72.209l-7.539-25.056c2.104.775 4.347 1.247 6.68 1.351z" fill="#b2d7f3"/><g><path d="m303.776 185.342v-63.325h30.237v69.432c0 3.958 2.363 7.501 5.976 9.115 5.322 2.377 8.967 7.832 8.673 14.102-.348 7.42-6.419 13.539-13.837 13.939-7.04.38-13.643-4.237-15.478-10.603-2.921 6.728-9.344 11.303-17.304 10.542-8.558-.818-15.378-7.96-15.84-16.544-.424-7.896 4.36-14.735 11.226-17.391 3.828-1.481 6.347-5.164 6.347-9.267z" fill="#b2d7f3"/></g><g fill="#d6e9f8"><path d="m297.43 194.608c3.827-1.48 6.346-5.163 6.346-9.267v-63.325h15.571v95.985c-2.921 6.728-9.344 11.303-17.304 10.542-8.558-.818-15.378-7.96-15.84-16.544-.424-7.896 4.36-14.735 11.227-17.391z"/><path d="m303.776 239.345c5.828 0 11.356-2.216 15.571-6.237v102.128h-15.741v-72.209l-7.539-25.056c2.103.774 4.347 1.246 6.679 1.351.343.016.69.023 1.03.023z"/></g></g></g></svg>