<svg id="Capa_1" enable-background="new 0 0 512 512" height="512" viewBox="0 0 512 512" width="512" xmlns="http://www.w3.org/2000/svg"><g><g><g><g><circle cx="256" cy="256" fill="#ffe377" r="256"/></g></g></g><path d="m309.495 115.349-28.349-28.349-48.299 48.299-15.115-15.632-26.166 11.333-36.307-36.307-15.191 14.307 14.32 14.32-2.347 2.347 15.668 15.668-2.307.999 28.46 28.46h-37.623v74.078l-8.045 8.045 28.071 28.071v45.655l-6.927 6.927 43.945 43.945v27.433l-24.927 26.3 80.435 80.435c135.442-6.666 243.209-118.587 243.209-255.683 0-8.367-.415-16.637-1.199-24.798l-138.869-138.869z" fill="#edbe00"/><g><path d="m255.67 404.586h67.975v26.66h-67.975z" fill="#005fe0"/><path d="m304.247 241.266h-48.577v26.66h48.576c15.163 0 27.499 12.337 27.499 27.5h26.661c.001-29.864-24.296-54.16-54.159-54.16z" fill="#005fe0"/><path d="m133.34 213.766c0 32.396 21.766 54.16 54.161 54.16h16.499l10-26.66h-26.5c-23.927 0-27.5-17.229-27.5-27.5 0-15.163 12.336-27.5 27.5-27.5h28.055v-26.66h-28.055c-29.864-.001-54.16 24.295-54.16 54.16z" fill="#2681ff"/><g><path d="m316.482 377.086h-26.661c0-15.163-12.336-27.5-27.5-27.5h-54.568c-29.864 0-54.16-24.296-54.16-54.16s24.296-54.16 54.16-54.16v26.66c-15.163 0-27.499 12.337-27.499 27.5s12.336 27.5 27.499 27.5h54.568c29.865 0 54.161 24.296 54.161 54.16z" fill="#00ddc1"/></g><path d="m262.321 322.926h-6.539v26.66h6.539c15.164 0 27.5 12.337 27.5 27.5h26.661c0-29.864-24.296-54.16-54.161-54.16z" fill="#00baa0"/><g><path d="m255.863 431.246h-6.184c-29.864 0-54.161-24.296-54.161-54.16h26.661c0 15.163 12.336 27.5 27.5 27.5h6.184z" fill="#2681ff"/></g><g><path d="m311.919 92.333-49.117 28v22h83.797v-16.666h13.361v-16.667h11.972v-16.667z" fill="#d6e9f8"/><path d="m200.081 92.333 49.117 28v22h-83.797v-16.666h-13.361v-16.667h-11.972v-16.667z" fill="#eef4ff"/></g><g><path d="" fill="none" stroke="#2681ff" stroke-miterlimit="10" stroke-width="26.661"/></g><path d="m261.144 455.856h-10.288l-20.002-368.856h50.292z" fill="#804111"/><path d="m261.144 455.856h-5.281v-368.856h25.283z" fill="#62320d"/><g><path d="m324.5 267.926v-26.66c23.927 0 27.5-17.229 27.5-27.5 0-15.163-12.336-27.5-27.5-27.5h-28.055v-26.66h28.055c29.864 0 54.161 24.296 54.161 54.16-.001 32.394-21.766 54.16-54.161 54.16z" fill="#00baa0"/></g><g><path d="m207.753 241.266h55.048v26.66h-55.048z" fill="#00ddc1"/></g><g><path d="m255.863 349.586h-6.184c-15.164 0-27.5 12.337-27.5 27.5h-26.661c0-29.864 24.296-54.16 54.161-54.16h6.184l3.917 13.093z" fill="#2681ff"/></g><g><path d="m262.321 431.246h-73.966v-26.66h73.966c15.164 0 27.5-12.337 27.5-27.5h26.661c0 29.864-24.296 54.16-54.161 54.16z" fill="#00ddc1"/></g><g><path d="m255.862 241.266h68.638v26.66h-68.638z" fill="#00baa0"/></g><g><path d="m262.321 431.246h-6.456v-26.66h6.456c15.164 0 27.5-12.337 27.5-27.5h26.661c0 29.864-24.296 54.16-54.161 54.16z" fill="#00baa0"/></g><path d="m304.247 322.926h-48.385v26.66h48.385c29.864 0 54.16-24.296 54.16-54.16h-26.661c0 15.163-12.336 27.5-27.499 27.5z" fill="#005fe0"/></g></g></svg>