<svg id="Capa_1" enable-background="new 0 0 512 512" height="512" viewBox="0 0 512 512" width="512" xmlns="http://www.w3.org/2000/svg"><g><g><path d="m512 256c0 141.385-114.615 256-256 256s-256-114.615-256-256c0-111.526 71.316-206.395 170.832-241.491l114.28-12.871c127.677 14.451 226.888 122.821 226.888 254.362z" fill="#ff6379"/></g><path d="m285.112 1.637-.924.104c-37.691 120.468-115.254 381.117-115.254 381.117l126.172 126.172c122.823-18.827 216.894-124.942 216.894-253.03 0-131.541-99.211-239.911-226.888-254.363z" fill="#ff415b"/><path d="m285.112 1.657c-9.556-1.081-19.266-1.657-29.112-1.657-29.862 0-58.522 5.131-85.168 14.529v219.056h114.28z" fill="#ffbda9"/><path d="m285.112 233.585v-231.928c-9.556-1.081-19.266-1.657-53.113-1.657v233.585z" fill="#f9a58d"/><path d="m274.333 148.602h-28.705l-13.629 3.953v-3.953h-75.432v8.397l2.725 15.001-2.726 12.567v37.026l.767 7.698-.767 8.479v17.004l.934 7.434-.934 8.744v37.026l1.309 7.521-1.309 8.656v8.004l1.101 12.049-1.101 9.676c0 22.178 17.979 40.157 40.157 40.157l.512-.001 8.983-1.291 12.185 1.243 55.93-.113z" fill="#eef4ff"/><path d="m342.477 266.962h-10.584l-7.611 2-7.508-2h-17.397v-.476l-3-11.152 3-12.326v-35.361l-2-7.71 2-7.74v-12.097l-2-7.851 2-8.327v-15.321h-53.75l-13.629 3.953v241.363l86.102-.138 7.668-1.03 8.128.998 8.58-.01c2.751 0 5.461-.175 8.119-.515l15.635-4.086c23.24-9.399 39.635-32.179 39.635-58.788 0-20.939-10.152-39.506-25.803-51.049l-14.14-7.863c-7.252-2.886-15.163-4.474-23.445-4.474z" fill="#d6e9f8"/><path d="m205.567 148.602-31.485 12.714-17.516-4.317v27.568l89.062-35.965zm-49.001 205.283 40.67 40.157 21.168-.045-61.838-61.837zm0-116.115 22.318-9.012 77.116 19.007v-15.449l-53.359-13.152 53.359-21.547v-16.177l-99.434 40.154zm110.497 156.272.418-.147-.571.001zm-110.497-69.886 28.886-11.665 70.548 70.548v-67.868l-9.081-27.501 9.081-3.667v-16.177l-99.434 40.154zm82.823-33.446-6.408 2.588 22.436 67.945-54.854-54.854zm-34.357-55.507-48.466 19.571v16.178l73.343-29.618z" fill="#d6e9f8"/><path d="m331.893 266.961h-15.119l-6.832 54.234-17.183-52.036 6.619-2.673v-23.478l-67.379-16.607v15.449l54.849 13.519-54.849 22.149v16.177l.982-.397 22.436 67.945-23.419-23.419v21.213l33.877 33.877.325.983 21.826-.045-9.025-9.025-32.083-97.157 31.902-12.883 39.279 118.952h15.796l-13.011-39.402zm46.455 11.132c-.402-.276-.809-.544-1.218-.811-.283-.185-.568-.367-.854-.548-1.507-.95-3.055-1.842-4.644-2.665-.111-.058-.223-.114-.334-.171-1.745-.891-3.534-1.706-5.367-2.436l-15.336 121.741c2.04-.261 4.049-.618 6.023-1.068.017-.004.034-.008.052-.012 1.954-.446 3.874-.983 5.754-1.606.05-.017.099-.034.149-.05 1.236-.412 2.455-.861 3.655-1.346l13.833-109.81c-.564-.416-1.135-.821-1.713-1.218zm-78.97-97.992v-16.178l-43.378 17.517-24.001 9.692v16.177l24.001-9.692zm0 27.546v-15.449l-18.603-4.585-23.757 9.594zm-67.379-59.045v5.504l13.629-5.504z" fill="#b2d7f3"/></g></svg>