<svg id="Capa_1" enable-background="new 0 0 512 512" height="512" viewBox="0 0 512 512" width="512" xmlns="http://www.w3.org/2000/svg"><g><g><circle cx="256" cy="256" fill="#adcfff" r="256"/></g><path d="m145.77 433.302 76.481 76.481c11.045 1.455 22.307 2.217 33.749 2.217 135.371 0 246.185-105.076 255.368-238.115l-178.303-178.303z" fill="#8bbbff"/><circle cx="256" cy="174.406" fill="#ff6379" r="110.23"/><path d="m145.77 174.406h220.46v258.896h-220.46z" fill="#ff6379"/><path d="m256 64.176v369.126h110.23v-258.896c0-60.879-49.352-110.23-110.23-110.23z" fill="#613393"/><path d="m256 64.176v369.126h110.23v-258.896c0-60.879-49.352-110.23-110.23-110.23z" fill="#ff415b"/><g><g><circle cx="256" cy="174.406" fill="#ffccbd" r="74.774"/><path d="m330.774 174.406c0 41.297-33.478 74.774-74.774 74.774v-149.549c41.297 0 74.774 33.478 74.774 74.775z" fill="#ffbda9"/></g><g fill="#2d2d2d"><circle cx="212.86" cy="157.129" r="8.226"/><circle cx="299.261" cy="157.129" r="8.226"/></g><g><circle cx="256" cy="202.46" fill="#00ddc1" r="29.814"/><path d="m285.814 202.46c0 16.466-13.348 29.814-29.814 29.814v-59.627c16.466-.001 29.814 13.347 29.814 29.813z" fill="#00baa0"/><g><g><path d="m248.5 182.013h7.5v40.895h-7.5z" fill="#00baa0"/></g><g><g><g><path d="m256 182.013h7.5v40.895h-7.5z" fill="#009a85"/></g></g></g></g></g></g><path d="m256 378.026 110.23-19.704v-15.237l-110.23 19.704zm0-99.077v15.237l110.23 19.704v-15.237z" fill="#af3244"/><path d="m145.77 397.73 110.23-19.704v-15.237l-110.23 19.704zm0-138.485v15.237l110.23 19.705v-15.237z" fill="#ff415b"/></g></svg>