<svg id="Capa_1" enable-background="new 0 0 512 512" height="512" viewBox="0 0 512 512" width="512" xmlns="http://www.w3.org/2000/svg"><g><g><g><g><circle cx="256" cy="256" fill="#00ddc1" r="256"/></g></g></g><path d="m190.444 321.556c27.562-40.312 55.287-50.537 55.287-50.537-6.895-6.951-13.517-13.728-19.767-20.248 0 0-37.446-31.978-49.695-58.906-.611-1.076-1.147-2.096-1.586-3.041-21.821-46.957 4.179-83.674 4.179-83.674l43.369 43.369h107.255l29.652-43.369 152.836 152.836c-1.064 139.806-114.182 252.924-253.987 253.989l-105.125-105.125s10.02-44.982 37.582-85.294z" fill="#00baa0"/><g><g><path d="m152.862 105.15h26v36.718c0 44.242 26.129 84.426 66.568 102.371l31.687 14.063c49.826 22.112 82.021 71.624 82.021 126.137v22.411h-26v-22.411c0-44.242-26.129-84.426-66.568-102.371l-31.687-14.063c-49.826-22.112-82.021-71.624-82.021-126.137z" fill="#7a3eb4"/></g><path d="m256.051 277.399 10.519 4.668c40.439 17.945 66.568 58.129 66.568 102.371v22.411h26v-22.411c0-54.513-32.195-104.024-82.021-126.137l-21.066-9.349z" fill="#613393"/></g><path d="" fill="none" stroke="#7a3eb4" stroke-miterlimit="10" stroke-width="18.942"/><path d="m342.099 368.696h-172.401v15.154h173.43c-.025-5.111-.38-10.168-1.029-15.154zm-172.401-20.694h167.848c-1.628-5.191-3.584-10.255-5.873-15.154h-161.975zm149.677-35.847c-3.965-5.391-8.372-10.463-13.191-15.154h-109.188v15.154z" fill="#ffe377"/><path d="m169.901 156.758h172.401v-15.154h-173.43c.025 5.111.38 10.168 1.029 15.154zm172.401 20.693h-167.848c1.628 5.191 3.584 10.255 5.873 15.154h161.974v-15.154zm-149.677 35.848c3.965 5.391 8.372 10.463 13.191 15.154h109.188v-15.154z" fill="#ffe377"/><path d="m315.004 213.299h-58.996v15.154h58.996zm-8.82 83.701h-50.179v15.154h63.369c-3.964-5.391-8.371-10.462-13.19-15.154zm-50.176-104.394h86.294v-15.154h-86.294zm86.091 176.09h-86.093v15.154h87.122c-.025-5.111-.38-10.168-1.029-15.154zm-86.091-211.938h86.294v-15.154h-86.294zm75.664 176.09h-75.667v15.154h81.54c-1.627-5.19-3.584-10.255-5.873-15.154z" fill="#edbe00"/><g><path d="m359.138 105.15h-26v36.718c0 44.242-26.129 84.426-66.568 102.371l-31.687 14.063c-49.826 22.112-82.021 71.624-82.021 126.137v22.411h26v-22.411c0-44.242 26.129-84.426 66.568-102.371l31.687-14.063c49.826-22.112 82.021-71.624 82.021-126.137z" fill="#005fe0"/></g><path d="m255.949 277.399-10.519 4.668c-40.439 17.945-66.568 58.129-66.568 102.371v22.411h-26v-22.411c0-54.513 32.195-104.024 82.021-126.137l21.066-9.349z" fill="#2681ff"/></g></svg>