<svg id="Capa_1" enable-background="new 0 0 512.001 512.001" height="512" viewBox="0 0 512.001 512.001" width="512" xmlns="http://www.w3.org/2000/svg"><g><g><g><g><circle cx="256" cy="256" fill="#ffe377" r="256"/></g></g><path d="m239.798 240.096-62.728 62.728 24.081 24.081-1.188.929 37.476 37.476-.075.07-60.249 5.044 22.536 22.536h7.948l-30.484 28.246 90.524 90.524c109.069-4.868 200.667-78.121 232.416-178.262l-258.58-258.58z" fill="#edbe00"/><g><path d="m177.115 386.732h185.818v34.474h-185.818z" fill="#2681ff"/></g><g><path d="m177.115 353.187h127.819v17.237h-127.819z" fill="#464646"/></g><g><path d="m337.86 386.652h-34.474v-142.621l-70.302-36.486 15.881-30.599 88.895 46.135z" fill="#2681ff"/></g><path d="m320.624 302.034c-23.367 0-42.309 18.942-42.309 42.309v47.177h84.618v-47.177c-.001-23.367-18.943-42.309-42.309-42.309z" fill="#2681ff"/><path d="m320.624 302.034v119.172h42.309v-76.863c-.001-23.367-18.943-42.309-42.309-42.309z" fill="#005fe0"/><circle cx="320.624" cy="344.343" fill="#464646" r="21.213"/><path d="m341.836 344.343c0 11.716-9.497 21.213-21.213 21.213v-42.426c11.716 0 21.213 9.498 21.213 21.213z" fill="#2d2d2d"/></g><g><path d="m231.038 327.834h-31.075l-8.69-50.113 48.837.187z" fill="#2681ff"/><path d="m231.038 327.834h-14.988v-50.113l24.06.187z" fill="#005fe0"/><path d="m241.284 124.909h-50.019l.19-50.02h50.02z" fill="#2681ff"/><path d="m241.284 124.909h-25.234v-50.02h25.425z" fill="#005fe0"/><path d="m216.37 302.824h-39.3l.734-192.553h38.566l10.001 96.277z" fill="#b2d7f3"/><path d="m254.122 302.824h-38.072v-192.536l38.806-.017z" fill="#8bbbff"/><g><circle cx="241.024" cy="193.863" fill="#2681ff" r="30"/><path d="m271.024 193.863c0 16.569-13.431 30-30 30v-60c16.569 0 30 13.432 30 30z" fill="#005fe0"/><g><g><circle cx="241.024" cy="193.863" fill="#464646" r="15"/></g><path d="m256.024 193.863c0 8.284-6.716 15-15 15v-30c8.284 0 15 6.716 15 15z" fill="#2d2d2d"/></g></g></g></g></svg>