<svg id="Capa_1" enable-background="new 0 0 512 512" height="512" viewBox="0 0 512 512" width="512" xmlns="http://www.w3.org/2000/svg"><g><g><g><circle cx="256" cy="256" fill="#ff6379" r="256"/></g></g><path d="m382.678 197.231-1.508 1.508-110.586-110.586-14.584 25.073v70.174l-4.483 5.673-25.59-25.59-38.189 38.189 30.063 30.063-116.405 147.295 131.962 131.962c7.462.654 15.01 1.008 22.642 1.008 119.721 0 220.236-82.187 248.232-193.215z" fill="#ff415b"/><g><path d="m391.605 387.164h-79.18c-14.554 0-26.352-11.798-26.352-26.352v-197.329h14.074c65.065 0 117.811 52.746 117.811 117.811v79.516c0 14.555-11.799 26.354-26.353 26.354z" fill="#edbe00"/><path d="m120.395 387.164h79.18c14.554 0 26.352-11.798 26.352-26.352v-197.329h-14.074c-65.065 0-117.811 52.746-117.811 117.811v79.516c0 14.555 11.799 26.354 26.353 26.354z" fill="#ffe377"/></g><g><path d="m332.866 284.677h-28.165v-26.706l-48.701-48.701v-39.831l76.866 76.866z" fill="#613393"/></g><g><path d="m242.419 88.153h28.165v101.201h-28.165z" fill="#7a3eb4"/></g><g><path d="m179.134 284.677h28.165v-26.706l48.701-48.701v-39.831l-76.866 76.866z" fill="#7a3eb4"/></g><g><path d="m256 88.153h14.584v101.201h-14.584z" fill="#613393"/></g></g></svg>