<svg id="Capa_1" enable-background="new 0 0 512 512" height="512" viewBox="0 0 512 512" width="512" xmlns="http://www.w3.org/2000/svg"><g><g><g><g><circle cx="256" cy="256" fill="#adcfff" r="256"/></g></g></g><path d="m353.889 177.855-58.855-58.855-15.483 15.483-15.483-15.483-10.992 32.612 10.171 10.171-8.401 8.401 48.525 48.525-201.591 133.884 159.346 159.346c63.797-1.27 127.21-26.236 175.893-74.92 49.216-49.217 74.186-113.487 74.945-177.99l-107.476-107.475z" fill="#8bbbff"/><g><path d="m273.105 119h21.929v294.906h-21.929z" fill="#613393"/><g><path d="m242.139 119h21.929v294.906h-21.929z" fill="#2681ff"/></g><g><path d="m253.103 119h10.965v294.906h-10.965z" fill="#005fe0"/></g><path d="m361.326 232.129-186.617 105.858c-16.877 9.573-35.948 14.606-55.35 14.606h-17.579v-142.795c0-32.167 26.077-58.244 58.244-58.244h244.463v6.469c.001 30.669-16.484 58.973-43.161 74.106z" fill="#ff6379"/><path d="m253.134 293.501 108.192-61.372c26.677-15.133 43.162-43.436 43.162-74.107v-6.468h-151.354z" fill="#ff415b"/></g></g></svg>