<svg id="Capa_1" enable-background="new 0 0 512.007 512.007" height="512" viewBox="0 0 512.007 512.007" width="512" xmlns="http://www.w3.org/2000/svg"><g><g><circle cx="256.004" cy="256.004" fill="#adcfff" r="256"/><path d="m306.816 506.931c120.935-24.337 209.84-133.401 205.003-260.651-.377-9.918-1.333-19.676-2.797-29.258l-59.631-59.631-360.498 14.94 72.005 72.005-19.173 19.173-68.801-68.801-17.951 17.951 23.983 23.983-21.215 21.215z" fill="#8bbbff"/><g><g><g><g><path d="m88.893 157.331h360.438v15h-360.438z" fill="#005fe0"/></g></g><g><path d="m261.612 164.833h15v53.869h-15z" fill="#005fe0"/></g><g><path d="m269.112 164.833h7.5v53.869h-7.5z" fill="#0051be"/></g><g><g><path d="m269.112 157.331h180.219v15h-180.219z" fill="#0051be"/></g></g></g><path d="m363.122 218.475h-70.945v-19.773h-46.13v19.773h-188.305l62.246 49.264 83.34 13.231 15.379 33.043 9.244 7.265h164.791l11.606-7.265 13.51-20.013-6.053-8.352-29.936-27.792-10.347-27.791z" fill="#eef4ff"/><g><path d="m372.041 318.242h15v37.529h-15z" fill="#0051be"/></g><g><path d="m236.605 318.242h15v37.529h-15z" fill="#005fe0"/></g><g><path d="m426.478 363.271h-225.609l-12.795-18.477 12.332-8.54 8.321 12.017h209.893l8.321-12.017 12.332 8.54z" fill="#005fe0"/></g><path d="m72.924 194.708h-35.183l20.001 63.148 62.246 9.883z" fill="#ff6379"/><path d="m381.869 257.856-10.347-27.791-8.4-11.59h-70.945v-19.773h-23.065v122.576h123.63l11.606-7.265 13.51-20.013-6.053-8.352z" fill="#d6e9f8"/><path d="m371.522 230.065h-33.549v55.583h73.832z" fill="#2681ff"/><g><circle cx="269.112" cy="266.357" fill="#ff6379" r="38.363"/><path d="m307.475 266.357c0-21.187-17.176-38.363-38.363-38.363v76.725c21.187.001 38.363-17.175 38.363-38.362z" fill="#ff1f3e"/><g><path d="m291.974 260.164h-16.669v-16.669h-12.386v16.669h-16.669v12.387h16.669v16.668h12.386v-16.668h16.669z" fill="#eef4ff"/><path d="m275.305 243.495h-6.193v45.724h6.193v-16.668h16.669v-12.387h-16.669z" fill="#d6e9f8"/></g></g><path d="m404.348 314.013h-185.641l5.244 11.265h172.791z" fill="#ff6379"/><path d="m418.619 348.271h-149.507v15h157.366l12.795-18.477-12.332-8.54z" fill="#0051be"/></g></g><path d="m404.348 314.013h-135.236v11.265h127.63z" fill="#ff1f3e"/><g><g><path d="m281.819 287.639c-.057 0-.115 0-.172 0-.207-.008-.399.035-.578.129-.186.061-.347.164-.483.31-.146.136-.25.297-.31.483-.094.179-.137.371-.129.578.018.133.036.266.054.399.071.254.2.475.386.662.101.078.202.156.304.235.234.136.486.204.757.205h.172c.207.008.399-.035.578-.129.186-.06.347-.164.483-.31.146-.136.25-.297.31-.483.094-.179.137-.371.129-.578-.018-.133-.036-.266-.054-.399-.071-.254-.2-.475-.386-.662-.101-.078-.202-.156-.304-.235-.234-.135-.486-.204-.757-.205z" fill="#ff4a4a"/></g></g></g></svg>