<svg id="Capa_1" enable-background="new 0 0 512 512" height="512" viewBox="0 0 512 512" width="512" xmlns="http://www.w3.org/2000/svg"><g><g><g><g><g><g><circle cx="256" cy="256" fill="#adcfff" r="256"/></g></g></g></g><path d="m253.292 115.964v37.586l-23.392-23.392-.043.006-.042-.091-.109.112-85.45 12.139v76.152l-43.848 45.307 43.848 43.848v107.235l96.68 96.68c4.986.29 10.006.454 15.064.454 141.385 0 256-114.615 256-256 0-18.497-1.979-36.53-5.706-53.914l-102.38-102.38z" fill="#8bbbff"/><g><g><path d="m151.756 83.269-78.144 46.889v74.462c0 43.158 34.986 78.144 78.144 78.144s78.144-34.986 78.144-78.144v-74.462z" fill="#eef4ff"/><path d="m151.756 259.322c-30.162 0-54.7-24.539-54.7-54.7v-51.189l54.7-32.823 54.7 32.823v51.189c.001 30.161-24.538 54.7-54.7 54.7z" fill="#d6e9f8"/><path d="m151.756 83.269v199.495c43.157 0 78.144-34.986 78.144-78.144v-74.462z" fill="#d6e9f8"/><path d="m151.756 259.322v-138.713l54.7 32.823v51.189c.001 30.162-24.538 54.701-54.7 54.701z" fill="#b2d7f3"/><g><path d="m175.225 126.224-23.468-14.081-23.469 14.081-7.717-12.861 31.186-18.714 31.186 18.714z" fill="#005fe0"/></g><path d="m151.756 94.649v17.494h.001l23.468 14.081 7.718-12.861-31.186-18.714z" fill="#0051be"/></g><path d="m426.293 414.867h-149v-177.618c0-41.145 33.355-74.5 74.5-74.5 41.145 0 74.5 33.355 74.5 74.5z" fill="#fa627c"/><path d="m426.293 414.867h-74.5v-252.118c41.145 0 74.5 33.355 74.5 74.5z" fill="#ff415b"/><g><circle cx="351.793" cy="293.772" fill="#eef4ff" r="57.584"/><path d="m409.377 293.771c0-31.803-25.781-57.584-57.584-57.584v115.168c31.803 0 57.584-25.781 57.584-57.584z" fill="#d6e9f8"/><g><path d="m386.11 284.475h-25.02v-25.02h-18.593v25.02h-25.021v18.593h25.021v25.02h18.593v-25.02h25.02z" fill="#ff6379"/><path d="m361.09 259.455h-9.297v68.633h9.297v-25.02h25.02v-18.593h-25.02z" fill="#ff1f3e"/></g></g><g><g><path d="m260.792 414.867h-116.535v-174.666h15v159.666h86.535v-291.403h76.501v15h-61.501z" fill="#005fe0"/></g><path d="m299.672 99.706h104.242v32.517h-104.242z" fill="#005fe0"/><path d="m333.156 130.964h37.273v41.516h-37.273z" fill="#005fe0"/><g fill="#0051be"><path d="m351.793 99.706h52.121v32.517h-52.121z"/><path d="m351.793 130.964h18.637v41.516h-18.637z"/></g></g><path d="m137.202 178.456h29.109v67.96h-29.109z" fill="#00baa0"/><path d="m151.756 178.456h14.555v67.96h-14.555z" fill="#009a85"/><path d="m122.774 152.853h57.966v67.96h-57.966z" fill="#00ddc1"/><path d="m151.755 152.853h28.984v67.96h-28.984z" fill="#00baa0"/></g></g><g><circle cx="351.793" cy="115.964" fill="#eef4ff" r="32.695"/><path d="m384.488 115.964c0 18.057-14.638 32.695-32.695 32.695v-65.39c18.057 0 32.695 14.638 32.695 32.695z" fill="#d6e9f8"/><g><path d="m362.194 115.964h-20.801l10.4-20.8z" fill="#005fe0"/><path d="m362.194 115.964-10.401-20.8v20.8z" fill="#0051be"/></g></g></g></svg>