<svg id="Capa_1" enable-background="new 0 0 512 512" height="512" viewBox="0 0 512 512" width="512" xmlns="http://www.w3.org/2000/svg"><g><g><g><g><circle cx="256" cy="256" fill="#a160e4" r="256"/></g></g></g><path d="m456.639 97.005-34.769-35.985c-10.615-9.039-21.972-17.231-33.976-24.461v155.79l-73.316-73.316-6.42 12.684-27.831-27.831.744 18.149-33.376-33.376-7.735 46.202-28.385-28.385-6.158 111.229-34.971-34.971 6.678 72.474 24.841 24.841-10.406 187.951 43.108 43.108c7.036.581 14.148.892 21.333.892 141.385 0 256-114.615 256-256 0-60.082-20.707-115.322-55.361-158.995z" fill="#7a3eb4"/><path d="m306.093 115.519h-.133c-6.627 0-12 5.373-12 12v67.966h-10v-83.001c0-6.627-5.373-12-12-12h-.133c-6.627 0-12 5.373-12 12v83.001h-10v-100.003c0-6.627-5.373-12-12-12h-.133c-6.627 0-12 5.373-12 12v100.002h-10.001v-79.934c0-6.664-5.402-12.066-12.066-12.066s-12.067 5.402-12.067 12.066v388.265c20.588 5.339 42.181 8.185 64.44 8.185 21.416 0 42.211-2.646 62.093-7.6v-376.881c0-6.628-5.372-12-12-12z" fill="#f9a58d"/><path d="m249.826 95.482c0-6.627-5.373-12-12-12h-.133c-6.627 0-12 5.373-12 12v100.002h-10.001v-79.934c0-6.664-5.402-12.066-12.066-12.066s-12.067 5.402-12.067 12.066v388.265c20.226 5.245 41.424 8.072 63.267 8.17v-316.5h-5z" fill="#ffbda9"/><g fill="#ffccbd"><circle cx="206.122" cy="267.229" r="41.866"/><path d="m194.759 269.554-29.155 7.803-21.579-81.379c-2.143-8.006 2.61-16.234 10.617-18.377l.161-.043c8.006-2.143 16.234 2.61 18.377 10.617z"/></g><g><path d="m247.422 388.644h15v55.416h-15z" fill="#464646"/><path d="m254.922 388.644h7.5v55.416h-7.5z" fill="#2d2d2d"/></g><g><path d="m247.422 444.06h15v23.333h-15z" fill="#f9a58d"/><path d="m254.922 444.06h7.5v23.333h-7.5z" fill="#df9280"/></g><g><path d="m236.558 350.311h36.73v68.648h-36.73z" fill="#005fe0"/><path d="m254.922 350.311h18.365v68.648h-18.365z" fill="#0051be"/></g><path d="m381.121 32.629v268.051h-133.795v52.477h15v-37.477h133.795v-273.941c-4.887-3.202-9.889-6.241-15-9.11z" fill="#ff415b"/><g><g><circle cx="254.826" cy="354.747" fill="#2681ff" r="23.467"/></g><g><path d="m278.293 354.747c0 12.96-10.507 23.467-23.467 23.467v-46.934c12.961 0 23.467 10.507 23.467 23.467z" fill="#005fe0"/></g><g><circle cx="254.826" cy="354.747" fill="#005fe0" r="15.858"/></g><g><path d="m270.684 354.747c0-8.758-7.1-15.857-15.858-15.857v31.715c8.758 0 15.858-7.1 15.858-15.858z" fill="#0051be"/></g></g></g></svg>