<svg id="Capa_1" enable-background="new 0 0 512 512" height="512" viewBox="0 0 512 512" width="512" xmlns="http://www.w3.org/2000/svg"><g><circle cx="256" cy="256" fill="#ffe377" r="256"/><path d="m379.776 124.742-41.104 41.104 14.26 14.26-220.708 220.707 110.864 110.864c4.278.212 8.582.323 12.912.323 141.066 0 255.472-114.101 255.988-255.046z" fill="#edbe00"/><path d="m256 400.813h-123.776v-276.071h123.776l10.001 138.035z" fill="#eef4ff"/><path d="m256 124.742h123.776v276.071h-123.776z" fill="#d6e9f8"/><path d="m143.458 137.27h225.083v251.015h-225.083z" fill="#005fe0"/><path d="m256 137.27h112.542v251.015h-112.542z" fill="#0051be"/><g fill="#eef4ff"><path d="m179.463 177.423h45.185v170.709h-45.185z"/><path d="m256 240.185 9.782 22.592-9.782 22.593h-48.605v-45.185z"/></g><g fill="#d6e9f8"><path d="m287.352 177.423h45.185v170.709h-45.185z"/><path d="m257.71 238.475h45.185v48.605h-45.185z" transform="matrix(0 -1 1 0 17.525 543.08)"/></g><path d="m228.547 510.532c9.021.962 18.177 1.468 27.453 1.468s18.432-.506 27.453-1.468v-109.719h-54.906z" fill="#804111"/><path d="m256 512c9.276 0 18.432-.506 27.453-1.468v-109.719h-27.453z" fill="#62320d"/></g></svg>