<svg id="Capa_1" enable-background="new 0 0 512 512" height="512" viewBox="0 0 512 512" width="512" xmlns="http://www.w3.org/2000/svg"><g><g><circle cx="256" cy="256" fill="#00ddc1" r="256"/></g><path d="m414.674 224.818-25.034-25.034-11.017 11.017-.694-2.53-59.415-17.486h-86.543l-59.415 17.486-36.503 74.551 55.472 55.472v32.878l-13.076 13.076 123.61 123.61c108.78-19.765 193.601-108.263 207.83-218.873l-66.779-66.779z" fill="#00baa0"/><g><path d="m136.66 222.207h151.095v50.045h-151.095z" fill="#005fe0"/><path d="m274.833 222.207h168.278v50.045h-168.278z" fill="#0051be"/><path d="m69.136 189.982h99.349v50.045h-99.349z" fill="#005fe0" transform="matrix(.707 .707 -.707 .707 186.83 -21.038)"/><g><path d="m453.825 282.823h-317.77l-83.88-83.88 10.607-10.606 79.486 79.486h311.557z" fill="#eef4ff"/></g><g><path d="m189.141 316.239h171.602v15h-171.602z" fill="#eef4ff"/></g><g><g><path d="m183.356 242.469h15v134.494h-15z" fill="#eef4ff"/></g><g><circle cx="190.856" cy="370.502" fill="#464646" r="18.493"/><path d="m209.349 370.502c0 10.213-8.28 18.493-18.493 18.493v-36.986c10.213 0 18.493 8.279 18.493 18.493z" fill="#2d2d2d"/><circle cx="190.856" cy="370.502" fill="#5a5a5a" r="6.472"/></g><g><path d="m351.528 242.469h15v134.494h-15z" fill="#d6e9f8"/></g><g><circle cx="358.81" cy="370.502" fill="#464646" r="18.493"/><path d="m377.303 370.502c0 10.213-8.28 18.493-18.493 18.493v-36.986c10.214 0 18.493 8.279 18.493 18.493z" fill="#2d2d2d"/><circle cx="358.81" cy="370.502" fill="#5a5a5a" r="6.472"/></g></g><g><g><path d="m274.833 316.239h85.91v15h-85.91z" fill="#d6e9f8"/></g></g><g><g><g><path d="m313.451 187.735h15v54.539h-15z" fill="#d6e9f8"/></g></g><g><g><path d="m403.346 249.774h-257.026l13.706-49.989 66.428-19.55h96.758l66.428 19.55zm-237.36-15h217.694l-6.296-22.96-56.334-16.579h-92.434l-56.334 16.579z" fill="#eef4ff"/></g><g><path d="m220.216 188.064h15v54.539h-15z" fill="#eef4ff"/></g><path d="m389.64 199.785-66.428-19.55h-48.379v15h46.217l56.334 16.579 6.296 22.96h-108.847v15h128.513z" fill="#d6e9f8"/></g></g><g><g><path d="m274.833 267.823h178.992v15h-178.992z" fill="#d6e9f8"/></g></g></g></g></svg>