<svg id="Capa_1" enable-background="new 0 0 512 512" height="512" viewBox="0 0 512 512" width="512" xmlns="http://www.w3.org/2000/svg"><g><circle cx="256" cy="256" fill="#ff9e22" r="256"/><path d="m293.224 218.777-107.115-107.115-71.643 19.639 69.397 69.397-.721 28.58 58.35 58.35-119.035 91.622 132.74 132.74c.268.001.535.01.803.01 104.943 0 195.121-63.155 234.644-153.523l-148.398-148.398z" fill="#e17726"/><g><g><g><path d="m256 276.522h-69.891v-27.55h69.891l10.001 13.775z" fill="#00ddc1"/></g></g></g><path d="m174.136 137.239h37.55v141.247h-37.55z" fill="#00ddc1"/><g><g><g><path d="m256 248.972h79.246v27.55h-79.246z" fill="#00baa0"/></g></g></g><g><path d="m186.109 325.997h-15v-199.335h-28.373v-15h43.373z" fill="#eef4ff"/></g><g><path d="m219.137 273.022h123.109v15h-123.109z" fill="#d6e9f8"/></g><g><path d="m219.137 318.497h73.913v15h-73.913z" fill="#d6e9f8"/></g><g><path d="m293.696 308.473h26.42v35.047h-26.42z" fill="#0051be" transform="matrix(0 1 -1 0 632.903 19.09)"/></g><g><g><path d="m256 273.022h79.246v15h-79.246z" fill="#b2d7f3"/></g></g><g><g><path d="m383.962 393.884h-56.716v-168.805h-148.637v-15h163.637v168.805h41.716z" fill="#d6e9f8"/></g></g><g><circle cx="334.746" cy="384.894" fill="#5a5a5a" r="18.493"/><path d="m353.239 384.894c0 10.213-8.28 18.493-18.493 18.493v-36.986c10.213 0 18.493 8.28 18.493 18.493z" fill="#464646"/><circle cx="334.746" cy="384.894" fill="#464646" r="6.472"/><path d="m341.218 384.894c0-3.574-2.897-6.472-6.472-6.472v12.944c3.574 0 6.472-2.898 6.472-6.472z" fill="#2d2d2d"/></g><g><path d="m321.536 306.473h26.42v39.047h-26.42z" fill="#005fe0" transform="matrix(-1 0 0 -1 669.492 651.994)"/></g><g><g><circle cx="178.609" cy="325.997" fill="#5a5a5a" r="77.39"/></g><g><g><path d="m178.609 386.596c-33.414 0-60.599-27.185-60.599-60.599 0-33.415 27.185-60.599 60.599-60.599 33.415 0 60.599 27.185 60.599 60.599s-27.184 60.599-60.599 60.599zm0-106.198c-25.143 0-45.599 20.456-45.599 45.599s20.456 45.599 45.599 45.599c25.144 0 45.599-20.456 45.599-45.599 0-25.144-20.455-45.599-45.599-45.599z" fill="#464646"/></g></g></g><path d="m178.609 248.606v154.781c42.742 0 77.39-34.649 77.39-77.391s-34.648-77.39-77.39-77.39z" fill="#464646"/><path d="m239.208 325.997c0-33.414-27.184-60.599-60.599-60.599v15c25.143 0 45.599 20.456 45.599 45.599s-20.455 45.599-45.599 45.599v15c33.415-.001 60.599-27.185 60.599-60.599z" fill="#2d2d2d"/><path d="m178.609 210.079h77.391v15h-77.391z" fill="#eef4ff"/><g><path d="m334.746 306.473h13.21v39.047h-13.21z" fill="#0051be" transform="matrix(-1 0 0 -1 682.702 651.994)"/></g><path d="m114.466 107.919h49.956v23.382h-49.956z" fill="#005fe0"/></g></svg>