<svg id="Capa_1" enable-background="new 0 0 512 512" height="512" viewBox="0 0 512 512" width="512" xmlns="http://www.w3.org/2000/svg"><g><circle cx="256" cy="256" fill="#ffe377" r="256"/><path d="m206.047 329.513-51.476-1.811-65.894 65.895 112.499 112.499c17.664 3.854 36.003 5.904 54.824 5.904 137.278 0 249.309-108.056 255.702-243.753l-153.856-153.856z" fill="#edbe00"/><path d="m176.84 195.904h180.321v204.43h-180.321z" fill="#eef4ff"/><path d="m357.161 195.904h-180.321l19.078-37.753h142.166z" fill="#d6e9f8"/><path d="m198.374 236.73h137.254v109.464h-137.254z" fill="#adcfff"/><path d="m267.001 195.904h90.16v204.43h-90.16z" fill="#d6e9f8"/><path d="m357.161 195.904h-90.16v-37.753h71.083z" fill="#b2d7f3"/><path d="m267.001 236.73h68.627v109.464h-68.627z" fill="#8bbbff"/><path d="m176.156 114.391h181.69v47.489h-181.69z" fill="#ff6379"/><path d="m266.985 114.391h90.861v47.489h-90.861z" fill="#ff415b"/><g><g><path d="m176.156 114.391h21.456v47.489h-21.456z" fill="#ff415b"/></g></g><g><g><path d="m216.214 114.391h21.456v47.489h-21.456z" fill="#ff415b"/></g></g><g><path d="m296.331 114.391h21.456v47.489h-21.456z" fill="#c73c50"/></g><g><path d="m336.389 114.391h21.456v47.489h-21.456z" fill="#c73c50"/></g><g><path d="m266.985 114.391h11.413v47.489h-11.413z" fill="#c73c50"/></g><g><path d="m255.572 114.391h11.413v47.489h-11.413z" fill="#ff415b"/></g><g><g><g><g><g><path d="m169.993 344.807-24.395 24.395-25.626-6.901-6.901-25.626 24.395-24.395c8.982-8.982 23.545-8.982 32.527 0s8.982 23.545 0 32.527z" fill="#ff6379"/></g></g></g><path d="m113.071 336.675-24.395 24.395c-8.982 8.982-8.982 23.545 0 32.527l28.461-4.066 24.395-24.395z" fill="#2681ff"/></g><g><path d="m145.598 369.202 24.395-24.395c8.982-8.982 8.982-23.545 0-32.527l-50.02 50.02z" fill="#ff415b"/></g><path d="m88.676 393.597c8.982 8.982 23.545 8.982 32.527 0l24.395-24.395-16.263-16.263z" fill="#005fe0"/></g><g><g><g><g><g><path d="m211.34 400.333h-34.5l-13.24-23 13.24-23h34.499c12.703 0 23 10.297 23 23s-10.297 23-22.999 23z" fill="#ff6379"/></g></g></g><path d="m176.84 354.333h-34.499c-12.703 0-23 10.297-23 23l23 12.999h34.499z" fill="#2681ff"/></g><g><path d="m176.84 400.333h34.499c12.703 0 23-10.297 23-23h-70.739z" fill="#ff415b"/></g><path d="m119.341 377.333c0 12.703 10.297 23 23 23h34.499v-23z" fill="#005fe0"/></g><g><g><path d="m217.542 269.244h98.917v15h-98.917z" fill="#005fe0"/></g><g><path d="m217.542 298.679h98.917v15h-98.917z" fill="#005fe0"/></g></g><g><g><path d="m267.001 269.244h49.459v15h-49.459z" fill="#0051be"/></g><g><path d="m267.001 298.679h49.459v15h-49.459z" fill="#0051be"/></g></g></g></svg>