<svg id="Capa_1" enable-background="new 0 0 512 512" height="512" viewBox="0 0 512 512" width="512" xmlns="http://www.w3.org/2000/svg"><g><path d="m77.519 439.498h356.962c47.809-46.51 77.519-111.529 77.519-183.498 0-141.385-114.615-256-256-256s-256 114.615-256 256c0 71.969 29.71 136.988 77.519 183.498z" fill="#a160e4"/><g><circle cx="256" cy="256" fill="none" r="256"/></g><circle cx="256" cy="256" fill="none" r="256"/><path d="m256 91.764v347.734h178.481c44.248-43.046 72.973-101.953 77.01-167.544l-181.394-181.393z" fill="#7a3eb4"/><path d="m77.519 386.028v53.469c46.114 44.861 109.064 72.503 178.481 72.503v-194.505h-54.065l-13.032-4h-7.401l-8.328 10.001-8.328-10.001h-14.794z" fill="#00ddc1"/><path d="m256 315.495v196.505c69.416 0 132.367-27.641 178.481-72.502v-53.47l-72.534-72.534h-12.549l-8.328 10.001-8.328-10.001h-10.358l-12.964 2h-53.42z" fill="#00baa0"/><path d="m256 419.549v-106.054h-67.097z" fill="#4ef8da"/><path d="m256.001 419.549 66.384-106.054h-66.388z" fill="#00ddc1"/><path d="m256.002 61.77c-38.052 0-71.566 19.432-91.158 48.914l-13.617 28.979c-2.991 9.969-4.598 20.537-4.598 31.48v109.374h218.747v-109.373c0-10.911-1.598-21.449-4.572-31.393l-13.638-29.058c-19.591-29.487-53.107-48.923-91.164-48.923z" fill="#e17726"/><path d="m146.629 171.144v109.374h109.374v-218.748c-38.058 0-71.575 19.438-91.167 48.927l-13.608 28.966c-2.992 9.97-4.599 20.538-4.599 31.481z" fill="#ff9e22"/><g><path d="m163.179 185.383h15.423v26.974h-15.423z" fill="#ffccbd"/><path d="m333.396 185.383h15.423v26.974h-15.423z" fill="#ffbda9"/></g><path d="m309.421 313.495-53.421 85.448-54.065-85.448v-45.423h107.486z" fill="#ffbda9"/><path d="m309.421 313.495-53.421 85.448v-130.871h53.421z" fill="#f9a58d"/><g><path d="m256 252.878 79.505-39.353v-59.654h-159.009v59.654z" fill="#ffccbd"/><path d="m256 252.878 79.505-39.353v-59.654h-79.505z" fill="#ffbda9"/></g><path d="" fill="none" stroke="#eef4ff" stroke-miterlimit="10" stroke-width="15.423"/><g fill="#2d2d2d"><circle cx="212.86" cy="186.659" r="8.226"/><circle cx="299.261" cy="186.659" r="8.226"/></g><path d="" fill="none" stroke="#eef4ff" stroke-miterlimit="10" stroke-width="15.423"/><path d="m176.534 215.926 14.301-1.379-14.341-40.83v39.808c0 .803.016 1.603.04 2.401z" fill="#d6e9f8"/><path d="m335.465 215.926-14.301-1.379 14.341-40.83v39.808c-.001.803-.017 1.603-.04 2.401z" fill="#b2d7f3"/><g><path d="m335.505 213.525v-.577l-79.505-10.393-79.505 10.393v.577c0 43.91 35.595 79.505 79.505 79.505 43.909 0 79.505-35.595 79.505-79.505z" fill="#eef4ff"/></g><path d="m335.505 213.525v-.577l-79.505-10.393v90.474c43.909.001 79.505-35.594 79.505-79.504z" fill="#d6e9f8"/><g><g><g><path d="m213.189 247.933h42.811v15.423h-42.811z" fill="#d6e9f8"/></g></g><g><path d="m256 247.933h42.812v15.423h-42.812z" fill="#b2d7f3"/></g></g><g><g><g><path d="m213.189 223.041h42.811v15.423h-42.811z" fill="#d6e9f8"/></g></g><g><path d="m256 223.041h42.812v15.423h-42.812z" fill="#b2d7f3"/></g></g><g><path d="m151.235 139.663h209.535c-3.118-10.39-7.737-20.128-13.608-28.965h-182.319c-5.871 8.837-10.49 18.576-13.608 28.965z" fill="#00ddc1"/><path d="m347.162 110.698h-91.095v28.965h104.703c-3.118-10.389-7.737-20.128-13.608-28.965z" fill="#00baa0"/><g><circle cx="256.114" cy="127.306" fill="#eef4ff" r="35.543"/><path d="m291.657 127.306c0 19.63-15.913 35.543-35.543 35.543v-71.085c19.63 0 35.543 15.913 35.543 35.542z" fill="#d6e9f8"/><circle cx="256.114" cy="127.306" fill="#d6e9f8" r="24.018"/><path d="m280.131 127.306c0-13.265-10.753-24.017-24.018-24.017v48.035c13.265 0 24.018-10.753 24.018-24.018z" fill="#b2d7f3"/></g></g><g><g><g><g><path d="m332.743 313.495h16.655v92.411h-16.655z" fill="#d6e9f8"/></g></g></g><g><path d="m164.846 313.495h16.655v50.94h-16.655z" fill="#eef4ff"/></g><g><path d="m228.294 449.567h-16.655v-47.805c0-21.21-17.255-38.465-38.465-38.465s-38.465 17.256-38.465 38.465v47.805h-16.655v-47.805c0-30.394 24.727-55.121 55.12-55.121s55.12 24.727 55.12 55.121z" fill="#eef4ff"/></g><g><circle cx="341.07" cy="425.549" fill="#2681ff" r="35.543"/><circle cx="341.07" cy="425.549" fill="#005fe0" r="24.018"/></g></g><g><circle cx="220.109" cy="444.518" fill="#464646" r="12.5"/></g><g><circle cx="126.434" cy="444.518" fill="#464646" r="12.5"/></g></g></svg>