<svg id="Capa_1" enable-background="new 0 0 512 512" height="512" viewBox="0 0 512 512" width="512" xmlns="http://www.w3.org/2000/svg"><g><g><g><g><g><g><g><circle cx="256" cy="256" fill="#adcfff" r="256"/></g></g></g></g></g></g><path d="m177.409 370.951 134.835 134.835c87.834-19.693 158.602-84.516 186.687-168.856l-242.931-242.93z" fill="#8bbbff"/><g><path d="m367.144 292.36c0 61.383-49.761 111.144-111.144 111.144s-111.144-49.761-111.144-111.144 111.144-198.361 111.144-198.361 111.144 136.978 111.144 198.361z" fill="#ff6379"/><path d="m367.144 292.36c0 61.383-49.761 111.144-111.144 111.144v-309.505s111.144 136.978 111.144 198.361z" fill="#ff1f3e"/></g><g><path d="m303.885 278.456h-34.913v-34.913h-25.944v34.913h-34.913v25.944h34.913v34.912h25.944v-34.912h34.913z" fill="#eef4ff"/><path d="m268.972 243.543h-12.972v95.769h12.972v-34.912h34.913v-25.944h-34.913z" fill="#d6e9f8"/></g></g></svg>