<svg id="Capa_1" enable-background="new 0 0 512 512" height="512" viewBox="0 0 512 512" width="512" xmlns="http://www.w3.org/2000/svg"><g><g><g><g><circle cx="256" cy="256" fill="#ff6379" r="256"/></g></g></g><path d="m431.402 235.455-38.402-38.402-189.737 92.477-59.339-59.339c-19.136-19.136-50.161-19.136-69.296 0s-19.136 50.161 0 69.296l2.848 2.848-5.484 5.484 203.45 203.45c121.232-9.104 218.908-102.641 234.406-221.979l-66.141-66.141z" fill="#ff415b"/><g><path d="m374.994 332.907-118.994 15.245-118.994-15.245-18.006-69.081 18.006-69.08 118.994-15.245 118.994 15.245 18.006 69.08z" fill="#eef4ff"/><g><path d="m403.861 320.791h-17.473v-15h17.473c23.14 0 41.965-18.825 41.965-41.964s-18.826-41.965-41.965-41.965h-17.473v-15h17.473c31.41 0 56.965 25.554 56.965 56.964s-25.555 56.965-56.965 56.965z" fill="#0051be"/></g><g><path d="m108.139 206.862h17.473v15h-17.473c-23.14 0-41.965 18.825-41.965 41.964s18.826 41.965 41.965 41.965h17.473v15h-17.473c-31.41 0-56.965-25.554-56.965-56.964s25.555-56.965 56.965-56.965z" fill="#005fe0"/></g><path d="m374.994 332.907-118.994 15.245v-168.651l118.994 15.245 18.006 69.08z" fill="#d6e9f8"/><g><g fill="#d6e9f8"><path d="m119 220.246h274v15h-274z"/><path d="m119 256.326h274v15h-274z"/><path d="m119 292.407h274v15h-274z"/></g><path d="m256 220.246h137v15h-137z" fill="#b2d7f3"/><path d="m256 256.326h137v15h-137z" fill="#b2d7f3"/><path d="m256 292.407h137v15h-137z" fill="#b2d7f3"/></g><path d="m374.994 332.907 18.006-2.307v-133.547l-18.006-2.307z" fill="#b2d7f3"/><path d="m137.006 194.746-18.006 2.307v133.547l18.006 2.307z" fill="#d6e9f8"/></g></g></svg>