<svg id="Capa_1" enable-background="new 0 0 512 512" height="512" viewBox="0 0 512 512" width="512" xmlns="http://www.w3.org/2000/svg"><g><g><g><circle cx="256" cy="256" fill="#a160e4" r="256"/></g></g><path d="m432.719 145.444-25.423-25.423-8.565 8.565-25.533-25.533-19.091 19.091.231 16.33-16.264-16.264-17.845 17.845.773 97.164-34.275-34.275-8.432 8.432-88.549-88.549-7.12 7.12-27.945-27.945.102 51.067-32.999-32.999-.761 48.41-33.357-33.357-18.699 18.699 1.108 228.444-9.144 3.793 112.205 112.205c89.486 30.533 192.511 10.129 263.882-61.243 64.51-64.51 87.379-154.882 68.636-237.741l-64.729-64.729z" fill="#7a3eb4"/><g><path d="m330.513 119.54c6.664 0 12.066 5.402 12.066 12.067v79.934h10.001v-100.003c0-6.627 5.373-12 12-12h.133c6.627 0 12 5.373 12 12v100.002h10v-83.001c0-6.627 5.373-12 12-12h.133c6.627 0 12 5.373 12 12v83.001h10v-67.966c0-6.627 5.373-12 12-12h.133c6.627 0 12 5.373 12 12v230.139h-126.532v-242.107c0-6.664 5.402-12.066 12.066-12.066z" fill="#00baa0"/><g fill="#00ddc1"><path d="m330.513 119.54c6.664 0 12.066 5.402 12.066 12.067v79.934h10.001v-100.003c0-6.627 5.373-12 12-12h.133c6.627 0 12 5.373 12 12v100.002h5v162.174h-63.267v-242.108c.001-6.664 5.403-12.066 12.067-12.066z"/><circle cx="335.821" cy="279.949" r="41.866"/><path d="m325.011 284.154-27.425 12.6-34.971-76.585c-3.46-7.531-.16-16.442 7.372-19.902l.151-.069c7.531-3.46 16.442-.16 19.902 7.372z"/></g></g><path d="m312.361 371.058h138.707v15h-138.707z" fill="#00ddc1"/><path d="m312.361 371.058h69.353v15h-69.353z" fill="#4ef8da"/><g><g><path d="m181.486 119.54c-6.664 0-12.066 5.402-12.066 12.067v79.934h-10.001v-100.003c0-6.627-5.373-12-12-12h-.133c-6.627 0-12 5.373-12 12v100.002h-10v-83.001c0-6.627-5.373-12-12-12h-.133c-6.627 0-12 5.373-12 12v83.001h-10v-67.966c0-6.627-5.373-12-12-12h-.133c-6.627 0-12 5.373-12 12v230.139h126.534v-242.107c-.001-6.664-5.403-12.066-12.068-12.066z" fill="#00ddc1"/><g fill="#00baa0"><path d="m181.486 119.54c-6.664 0-12.066 5.402-12.066 12.067v79.934h-10.001v-100.003c0-6.627-5.373-12-12-12h-.133c-6.627 0-12 5.373-12 12v100.002h-5v162.174h63.267v-242.108c0-6.664-5.402-12.066-12.067-12.066z"/><circle cx="176.179" cy="279.949" r="41.866"/><path d="m186.989 284.154 27.425 12.6 34.971-76.585c3.46-7.531.16-16.442-7.372-19.902l-.151-.069c-7.531-3.46-16.442-.16-19.902 7.372z"/></g></g><path d="m60.933 371.058h138.707v15h-138.707z" fill="#00ddc1"/><path d="m60.933 371.058h69.353v15h-69.353z" fill="#4ef8da"/></g></g></svg>