<svg id="Capa_1" enable-background="new 0 0 512 512" height="512" viewBox="0 0 512 512" width="512" xmlns="http://www.w3.org/2000/svg"><g><g><g><g><circle cx="256" cy="256" fill="#00ddc1" r="256"/></g></g></g><path d="m208.948 101.04-24.486 24.486 27.873 27.873-7.207 7.207 12.538 12.538-9.417 9.417-8.788-8.788-5.666 5.666 8.788 8.788-25.313 25.313 65.897 65.897-92.136 123.469 60.419 60.419v44.802c14.469 2.541 29.353 3.873 44.55 3.873 141.385 0 256-114.615 256-256 0-10.399-.636-20.649-1.842-30.723l-129.75-129.75z" fill="#00baa0"/><path d="m124.82 207.444v132.924c0 48.495 39.313 87.808 87.808 87.808s87.808-39.313 87.808-87.808v-132.924z" fill="#d6e9f8"/><g><path d="m212.628 201.94c-15.531 0-28.167-12.635-28.167-28.167h15c0 7.26 5.906 13.167 13.167 13.167s13.167-5.906 13.167-13.167-5.907-13.167-13.167-13.167h-7.5v-39.909h15v25.923c11.902 3.292 20.667 14.218 20.667 27.153 0 15.531-12.635 28.167-28.167 28.167z" fill="#2681ff"/></g><g><path d="m212.628 235.714c-17.58 0-31.883-14.303-31.883-31.883s14.303-31.883 31.883-31.883c17.581 0 31.883 14.303 31.883 31.883s-14.302 31.883-31.883 31.883zm0-48.767c-9.309 0-16.883 7.574-16.883 16.883s7.574 16.883 16.883 16.883c9.31 0 16.883-7.574 16.883-16.883s-7.573-16.883-16.883-16.883z" fill="#d6e9f8"/></g><path d="m212.628 171.947c-.034 0-.068.003-.102.003v15.003c.035 0 .068-.005.102-.005 9.31 0 16.883 7.574 16.883 16.883s-7.574 16.883-16.883 16.883c-.035 0-.068-.005-.102-.005v15.003c.034 0 .068.003.102.003 17.581 0 31.883-14.303 31.883-31.883s-14.302-31.885-31.883-31.885z" fill="#b2d7f3"/><g><path d="m212.628 207.444v220.732c48.495 0 87.808-39.313 87.808-87.808v-132.924z" fill="#b2d7f3"/></g><path d="m212.628 201.94c15.531 0 28.167-12.635 28.167-28.167h-15c0 7.26-5.907 13.167-13.167 13.167z" fill="#2681ff"/><path d="m205.128 506.937c4.949.998 9.953 1.841 15 2.549v-82.543h-15z" fill="#ff6379"/><path d="m212.628 444.535h-19.945v-25.7h19.945l4.049 12.85z" fill="#d6e9f8"/><path d="m212.628 418.835h19.946v25.7h-19.946z" fill="#b2d7f3"/><path d="m143.31 228.396h138.636v70.653h-138.636z" fill="#b2d7f3"/><path d="m212.629 228.396h69.318v70.653h-69.318z" fill="#8bbbff"/><path d="m212.628 407.225c-38.222 0-69.318-31.096-69.318-69.318v-46.358h138.636v46.358c0 38.222-31.096 69.318-69.318 69.318z" fill="#ff6379"/><g><path d="m124.82 324.567h35.485v15h-35.485z" fill="#2d2d2d"/></g><path d="m212.628 407.225v-115.676h69.318v46.358c0 38.222-31.096 69.318-69.318 69.318z" fill="#ff415b"/><g><path d="m124.82 284.049h35.485v15h-35.485z" fill="#2d2d2d"/></g><g><path d="m124.82 243.532h35.485v15h-35.485z" fill="#2d2d2d"/></g><path d="m184.462 125.526h165.946v368.496c10.351-4.109 20.363-8.884 30-14.253v-384.243h-195.946z" fill="#2681ff"/><path d="m281.946 125.526h68.462v368.496c10.351-4.109 20.363-8.884 30-14.253v-384.243h-98.462z" fill="#0051be"/></g></svg>