<svg id="Capa_1" enable-background="new 0 0 512.136 512.136" height="512" viewBox="0 0 512.136 512.136" width="512" xmlns="http://www.w3.org/2000/svg"><g><g><g><g><circle cx="256" cy="256.068" fill="#adcfff" r="256"/></g></g></g><g><path d="m116.497 395.651 115.197 115.197c73.403 6.999 149.251-17.606 205.462-73.817s80.816-132.059 73.817-205.462l-115.196-115.198z" fill="#8bbbff"/><g><path d="m261.035 314.753-36.845-26.795-26.794-36.845 152.419-152.419 38.928 24.786 24.711 38.853z" fill="#eef4ff"/><path d="m185.529 344.296-17.676-17.677 29.543-75.506 63.639 63.64z" fill="#d6e9f8"/><path d="m137.756 356.716 7.556 10.12 10.121 7.557 30.096-30.097-17.676-17.677z" fill="#eef4ff"/><path d="m305.898 126.826h52v106.849h-52z" fill="#00ddc1" transform="matrix(.707 .707 -.707 .707 224.667 -181.893)"/><path d="m261.035 314.753-36.845-26.795 171.349-171.349 31.82 31.82z" fill="#d6e9f8"/><path d="m185.529 344.296-8.838-8.839 52.525-52.524 31.819 31.82z" fill="#b2d7f3"/><path d="m145.312 366.836 10.121 7.557 30.096-30.097-8.838-8.839z" fill="#d6e9f8"/><g><path d="m119.046 359.321h24.999v42.563h-24.999z" fill="#2681ff" transform="matrix(.707 .707 -.707 .707 307.656 18.459)"/><path d="m129.715 363.74h12.499v42.563h-12.499z" fill="#0051be" transform="matrix(.707 .707 -.707 .707 312.075 16.629)"/></g><g><path d="m343.706 113.443h90v20h-90z" fill="#ff6379" transform="matrix(.707 .707 -.707 .707 201.136 -238.701)"/><path d="m382.116 129.352h45v20h-45z" fill="#ff415b" transform="matrix(.707 .707 -.707 .707 217.046 -245.291)"/></g><path d="m328.135 136.037h25.948v106.849h-25.948z" fill="#00baa0" transform="matrix(.707 .707 -.707 .707 233.878 -185.708)"/><g><circle cx="264.114" cy="248.034" fill="#b2d7f3" r="16.712"/><path d="m275.932 259.851c-6.527 6.527-17.108 6.527-23.635 0l23.635-23.635c6.526 6.527 6.526 17.109 0 23.635z" fill="#8bbbff"/></g></g></g></g></svg>