<svg id="Capa_1" enable-background="new 0 0 512 512" height="512" viewBox="0 0 512 512" width="512" xmlns="http://www.w3.org/2000/svg"><g><g><g><g><circle cx="256" cy="256" fill="#ff9e22" r="256"/></g></g></g><path d="m308.699 168.432-57.996-57.996-17.611 84.501 26.149 26.149-7.155 7.155-85.9-85.9-3.002 21.904-21.904 3.001 78.546 78.546.199 14.51-26.149-26.149-84.501 17.611 58.616 58.616-78.163 63.132 136.8 136.8c9.641 1.102 19.437 1.688 29.372 1.688 141.385 0 256-114.615 256-256 0-12.683-.937-25.147-2.719-37.336l-132.302-132.302z" fill="#e17726"/><path d="m330.42 118.44c2.803 7.33 1.147 15.612-4.402 21.161l-88.934 88.934 3.842 29.348 31.952-31.952 8.506 43.1 78.469-78.469c5.754-5.754 14.451-7.385 21.893-4.095 13.352 5.904 29.65 3.023 40.127-8.644 11.39-12.684 11.84-32.262.988-45.409-10.094-12.229-25.515-14.82-39.046-9.482 6.353-11.499 3.568-27.232-6.836-36.571-10.962-9.84-28.055-9.775-38.947.142-9.203 8.381-11.741 21.142-7.612 31.937zm-140.455 259.808c-3.291-7.442-1.659-16.139 4.095-21.893l72.73-72.73-4.51-22.851-33.836 33.836-6.649-50.787-78.697 78.697c-5.549 5.549-13.831 7.205-21.161 4.402-10.795-4.128-23.556-1.591-31.936 7.612-9.918 10.892-9.983 27.985-.142 38.947 9.339 10.403 25.071 13.189 36.571 6.836-5.338 13.53-2.747 28.951 9.482 39.046 13.147 10.853 32.725 10.402 45.409-.988 11.667-10.477 14.549-26.774 8.644-40.127z" fill="#eef4ff"/><path d="m359.853 190.563c5.754-5.754 14.451-7.385 21.893-4.095 13.352 5.904 29.65 3.023 40.127-8.644 11.39-12.684 11.84-32.262.988-45.409-10.094-12.229-25.515-14.82-39.046-9.482l-109.629 109.628 7.197 36.47zm-169.888 187.685c-3.291-7.442-1.659-16.139 4.095-21.893l72.73-72.73-4.51-22.85-33.836 33.836-1.888-14.42-100.126 100.127c-5.338 13.53-2.747 28.951 9.482 39.046 13.147 10.853 32.725 10.403 45.409-.988 11.667-10.478 14.549-26.775 8.644-40.128z" fill="#d6e9f8"/><g fill="#613393"><path d="m109.376 216.542 84.501 17.611-84.501 17.611z"/><path d="m250.703 110.436-17.611 84.501-17.61-84.501z"/><path d="m166.186 142.341 47.299 72.204-72.205-47.298z"/></g></g></svg>