<svg id="Capa_1" enable-background="new 0 0 512.147 512.147" height="512" viewBox="0 0 512.147 512.147" width="512" xmlns="http://www.w3.org/2000/svg"><g><g><g><g><circle cx="256.147" cy="256" fill="#a160e4" r="256"/></g></g><path d="m132.805 377.448 134.783 134.282c132.648-5.84 238.984-112.572 244.33-245.241l-134.783-134.283z" fill="#7a3eb4"/><g><path d="m184.481 82.91h143.333v346.18h-143.333z" fill="#edbe00" transform="matrix(.708 .706 -.706 .708 255.369 -106.142)"/><path d="m336.841 256.728-81.647-81.343-81.571 81.571 81.799 81.496z" fill="#ff9e22"/><path d="m169.372 288.592c3.63-3.644 3.619-9.541-.025-13.171s-9.541-3.619-13.171.024c-3.63 3.644-3.619 9.541.025 13.171 3.644 3.631 9.541 3.62 13.171-.024zm34.058 33.931c3.63-3.644 3.619-9.541-.025-13.171s-9.541-3.619-13.171.024c-3.63 3.644-3.619 9.541.025 13.171 3.643 3.63 9.54 3.62 13.171-.024zm34.057 33.93c3.63-3.644 3.619-9.541-.025-13.171s-9.541-3.619-13.171.024c-3.63 3.644-3.619 9.541.025 13.171 3.644 3.631 9.541 3.62 13.171-.024zm-110.924-24.892c3.63-3.644 3.619-9.541-.025-13.171s-9.541-3.619-13.171.024c-3.63 3.644-3.619 9.541.025 13.171s9.54 3.62 13.171-.024zm54.919 54.715c-3.63 3.644-3.619 9.541.025 13.171s9.541 3.619 13.171-.025 3.619-9.541-.025-13.171-9.541-3.619-13.171.025zm-20.862-20.785c3.63-3.644 3.619-9.541-.025-13.171s-9.541-3.619-13.171.025-3.619 9.541.025 13.171 9.541 3.619 13.171-.025zm38.434-4.518c3.63-3.644 3.619-9.541-.025-13.171s-9.541-3.619-13.171.025-3.619 9.541.025 13.171c3.643 3.629 9.54 3.618 13.171-.025zm-34.058-33.931c3.63-3.644 3.619-9.541-.025-13.171s-9.541-3.619-13.171.025-3.619 9.541.024 13.171c3.645 3.63 9.542 3.618 13.172-.025z" fill="#ffe377"/><path d="m429.082 183.961-50.543-50.353-244.785 244.786 50.998 50.808z" fill="#ff9e22"/><path d="m246.86 219.556h57.681v115.359h-57.681z" fill="#e17726" transform="matrix(.708 .706 -.706 .708 276.05 -113.751)"/><g><g><g><path d="m203.43 322.523c-3.63 3.644-9.527 3.655-13.171.025-.222-.221-.429-.451-.624-.688l13.08-13.129c.238.194.469.401.691.622 3.643 3.629 3.654 9.526.024 13.17z" fill="#edbe00"/></g><g><ellipse cx="230.889" cy="349.88" fill="#edbe00" rx="9.313" ry="9.313" transform="matrix(1 -.002 .002 1 -.651 .431)"/></g><g><circle cx="192.456" cy="354.399" fill="#edbe00" r="9.313"/></g><g><ellipse cx="188.08" cy="392.849" fill="#edbe00" rx="9.313" ry="9.313" transform="matrix(.85 -.527 .527 .85 -178.881 158.234)"/></g></g></g></g></g><g><g><circle cx="256" cy="256.147" fill="#a160e4" r="256"/></g></g><path d="m132.753 377.499 134.688 134.378c132.648-5.84 238.984-112.572 244.33-245.241l-134.783-134.282z" fill="#7a3eb4"/><path d="m378.488 133.659-51.02-50.827-244.444 244.94 50.677 50.675 134-111.14z" fill="#edbe00"/><path d="m305.73 206.417c4.491 4.491 11.772 4.491 16.263 0s4.491-11.772 0-16.263-11.772-4.491-16.263 0-4.491 11.772 0 16.263zm22.847-55.878c-4.491-4.491-11.772-4.491-16.263 0s-4.491 11.772 0 16.263 11.772 4.491 16.263 0 4.491-11.772 0-16.263zm-55.575 23.15c4.491 4.491 11.772 4.491 16.263 0s4.491-11.772 0-16.263-11.772-4.491-16.263 0c-4.491 4.49-4.491 11.772 0 16.263zm111.657 19.262c4.491 4.491 11.772 4.491 16.263 0s4.491-11.772 0-16.263-11.772-4.491-16.263 0c-4.491 4.49-4.491 11.772 0 16.263zm-32.731-32.732c4.491 4.491 11.772 4.491 16.263 0s4.491-11.772 0-16.263-11.772-4.491-16.263 0-4.491 11.772 0 16.263zm-32.728-32.728c4.491 4.491 11.772 4.491 16.263 0s4.491-11.772 0-16.263-11.772-4.491-16.263 0-4.491 11.772 0 16.263zm35.525 95.394c-4.491-4.491-11.772-4.491-16.263 0s-4.491 11.772 0 16.263 11.772 4.491 16.263 0 4.491-11.772 0-16.263zm6.58-39.618c-4.491-4.491-11.772-4.491-16.263 0s-4.491 11.772 0 16.263 11.772 4.491 16.263 0 4.491-11.772 0-16.263zm-171.642 139.217c4.491 4.491 11.772 4.491 16.263 0s4.491-11.772 0-16.263-11.772-4.491-16.263 0-4.491 11.772 0 16.263zm-29.934 29.935c-4.491-4.491-11.772-4.491-16.263 0s-4.491 11.772 0 16.263 11.772 4.491 16.263 0 4.491-11.772 0-16.263zm32.731 32.731c-4.491-4.491-11.772-4.491-16.263 0s-4.491 11.772 0 16.263 11.772 4.491 16.263 0 4.491-11.772 0-16.263zm46.198-46.198c-4.491-4.491-11.772-4.491-16.263 0s-4.491 11.772 0 16.263 11.772 4.491 16.263 0c4.491-4.49 4.491-11.772 0-16.263zm-72.346-26.148c-4.491-4.491-11.772-4.491-16.263 0s-4.491 11.772 0 16.263 11.772 4.491 16.263 0 4.491-11.772 0-16.263zm-39.311 6.886c-4.491-4.491-11.772-4.491-16.263 0s-4.491 11.772 0 16.263 11.772 4.491 16.263 0c4.491-4.49 4.491-11.772 0-16.263zm72.039 25.842c-4.491-4.491-11.772-4.491-16.263 0s-4.491 11.772 0 16.263 11.772 4.491 16.263 0 4.491-11.772 0-16.263zm-42.105-55.776c4.491 4.491 11.772 4.491 16.263 0s4.491-11.772 0-16.263-11.772-4.491-16.263 0-4.491 11.772 0 16.263z" fill="#ffe377"/><path d="m108.341 245.558h346.181v71.666h-346.181z" fill="#ff9e22" transform="matrix(.707 -.707 .707 .707 -116.544 281.413)"/><path d="m336.618 256.952-81.495-81.495-81.571 81.571 81.647 81.647z" fill="#ff9e22"/><g><g fill="#edbe00"><circle cx="346.594" cy="231.017" r="11.5"/><circle cx="392.791" cy="184.819" r="11.5"/><circle cx="184.328" cy="393.282" r="11.5"/><circle cx="353.173" cy="191.399" r="11.5"/><circle cx="230.526" cy="347.084" r="11.5"/><path d="m368.191 160.219c4.491-4.491 4.491-11.772 0-16.263l-16.263 16.263c4.491 4.491 11.772 4.491 16.263 0z"/><path d="m159.729 368.682c4.491-4.491 4.491-11.772 0-16.263l-16.263 16.263c4.49 4.491 11.772 4.491 16.263 0z"/><path d="m205.926 322.484c4.491-4.491 4.491-11.772 0-16.263l-16.263 16.263c4.491 4.491 11.772 4.491 16.263 0z"/><circle cx="190.908" cy="353.664" r="11.5"/><path d="m321.994 190.154-16.263 16.263c4.491 4.491 11.772 4.491 16.263 0s4.491-11.772 0-16.263z"/></g></g><path d="m336.618 256.952-40.71-40.71-81.571 81.571 40.862 40.862z" fill="#e17726"/></g></svg>