<svg id="Capa_1" enable-background="new 0 0 512 512" height="512" viewBox="0 0 512 512" width="512" xmlns="http://www.w3.org/2000/svg"><g><g><g><g><g><circle cx="256" cy="256" fill="#ffe377" r="256"/></g></g></g></g><path d="m376.689 134.833c-3.538-3.878-49.957-51.823-120.689 19.815 0 0-62.146-79.602-136.432-7.981l76.225 76.225c-7.57 12.481-13.637 32.351-6.313 61.1l-89.252-89.252c-30.379 32.549 8.607 94.383 8.607 94.383l43.65 43.65 23.136 72.905 105.129 105.129c57.04-5.508 112.586-30.101 156.271-73.786 48.366-48.366 73.33-111.269 74.899-174.645l-131.148-131.148z" fill="#edbe00"/><g><path d="m418.115 191.094-6.318 3.646c8.982 18.67 8.893 41.309-2.236 60.613-14.974 25.974-45.185 37.666-72.842 30.328 2.96-8.614 4.591-17.841 4.591-27.447 0-42.567-31.576-77.884-72.532-83.795 5.809-29.89 32.121-52.456 63.709-52.456 22.282 0 41.939 11.229 53.628 28.336l6.314-3.653c-14.147-24.455-40.47-39.647-68.695-39.647-28.646 0-53.793 15.266-67.736 38.09-13.943-22.823-39.089-38.09-67.736-38.09-28.225 0-54.548 15.192-68.696 39.647l6.314 3.653c11.689-17.106 31.346-28.336 53.629-28.336 31.652 0 58.004 22.659 63.741 52.639-40.355 6.435-71.299 41.473-71.299 83.612 0 9.495 1.594 18.619 4.49 27.148-27.961 7.968-58.801-3.699-73.98-30.03-11.129-19.304-11.218-41.943-2.235-60.613l-6.318-3.646c-14.12 24.47-14.135 54.863-.038 79.315 14.307 24.818 40.093 38.979 66.829 39.66-12.809 23.478-13.476 52.889.831 77.706 14.097 24.453 40.405 39.67 68.657 39.713l.011-7.294c-20.658-1.583-40.204-13.005-51.333-32.309-15.014-26.044-9.926-58.15 10.419-78.398 15.484 20.297 39.906 33.426 67.347 33.426 27.123 0 51.29-12.833 66.798-32.729 19.768 20.282 24.57 51.954 9.728 77.701-11.129 19.304-30.675 30.726-51.333 32.309l.011 7.294c28.252-.043 54.561-15.26 68.657-39.713 14.307-24.818 13.641-54.228.831-77.706 26.736-.68 52.522-14.841 66.829-39.66 14.099-24.452 14.084-54.844-.037-79.314zm-161.483 127.094c-19.084 0-36.1-8.974-47.088-22.911l39.226-22.614-11.567-20.064-38.225 22.037c-1.486-5.217-2.299-10.714-2.299-16.401 0-28.874 20.519-53.043 47.741-58.699v40.556h23.16v-40.79c27.846 5.161 49.006 29.615 49.006 58.934 0 5.91-.873 11.617-2.474 17.015l-39.29-22.65-11.567 20.064 40.079 23.105c-10.999 13.656-27.842 22.418-46.702 22.418z" fill="#ff6379"/><path d="m411.797 194.74c8.982 18.67 8.893 41.309-2.236 60.613-14.974 25.974-45.185 37.666-72.842 30.329 2.96-8.614 4.591-17.841 4.591-27.447 0-42.567-31.576-77.884-72.532-83.795 5.809-29.89 32.121-52.456 63.709-52.456 22.282 0 41.939 11.229 53.628 28.336l6.314-3.653c-14.147-24.455-40.47-39.647-68.695-39.647-28.646 0-53.793 15.266-67.735 38.089v94.982h11.579v-40.79c27.846 5.161 49.006 29.615 49.006 58.934 0 5.91-.873 11.617-2.474 17.015l-39.29-22.65-11.567 20.064 40.079 23.105c-10.998 13.657-27.842 22.419-46.702 22.419-.212 0-.421-.016-.632-.019v24.735c.211.002.421.009.632.009 27.123 0 51.29-12.833 66.798-32.729 19.768 20.282 24.57 51.954 9.728 77.701-11.129 19.304-30.675 30.726-51.333 32.309l.011 7.294c28.252-.043 54.561-15.26 68.657-39.713 14.307-24.818 13.641-54.228.831-77.706 26.736-.68 52.522-14.841 66.829-39.66 14.097-24.453 14.082-54.845-.039-79.315z" fill="#ff415b"/></g></g></svg>