<svg id="Capa_1" enable-background="new 0 0 512 512" height="512" viewBox="0 0 512 512" width="512" xmlns="http://www.w3.org/2000/svg"><g><g><g><g><g><g><circle cx="256" cy="256" fill="#00ddc1" r="256"/></g></g></g></g><path d="m256.457 96.586-81.645 320.162 94.885 94.885c133.657-7.047 240.121-116.611 242.25-251.516l-174.76-174.76z" fill="#00baa0"/><path d="m174.812 416.748v-55.536l10.001-50.891-10.001-50.891v-3.843c0-44.839 36.349-81.188 81.188-81.188s81.188 36.349 81.188 81.188v3.843l-10.001 51.892 10.001 49.891v55.536h-162.376z" fill="#d6e9f8"/><g><path d="m256 416.748v-242.35c44.839 0 81.188 36.349 81.188 81.188v3.843l-10.001 51.744 10.001 50.038v55.536h-81.188z" fill="#b2d7f3"/></g><g><path d="m241.667 89.408h28.667v52h-28.667z" fill="#005fe0"/></g><path d="m256 89.408h14.333v52.332h-14.333z" fill="#0051be"/><g fill="#00ddc1"><path d="m256 284.682v-26.626"/><path d="m256 344.752v-26.627"/></g><g><path d="m174.812 259.429h162.375v101.783h-162.375z" fill="#ff6379"/><path d="m256 259.429h81.188v101.783h-81.188z" fill="#ff1f3e"/></g><g><g><path d="m284.662 302.556h-20.897v-20.898h-15.53v20.898h-20.897v15.529h20.897v20.898h15.53v-20.898h20.897z" fill="#eef4ff"/><path d="m263.765 281.658h-7.765v57.325h7.765v-20.898h20.897v-15.529h-20.897z" fill="#d6e9f8"/></g></g><g><path d="m346.824 153.194c0 9.323-7.557 16.88-16.88 16.88s-16.88-7.557-16.88-16.88 16.88-30.126 16.88-30.126 16.88 20.803 16.88 30.126z" fill="#d6e9f8"/></g><path d="m224.333 129.411h63.333v51.354h-63.333z" fill="#2681ff"/><path d="m256 129.411h31.667v51.354h-31.667z" fill="#005fe0"/><g><path d="m256 103.129h-27.855v-17.772h27.855l3.043 8.886z" fill="#2681ff"/><path d="m256 85.357h81.188v17.771h-81.188z" fill="#005fe0"/></g><g><path d="m191.144 148.908v-15h-11.558c-.343-1.508-.769-2.984-1.286-4.417l10.097-5.83-7.5-12.99-10.39 5.999c-.99-1.073-2.045-2.085-3.152-3.039l6.04-10.462-12.99-7.5-6.128 10.614c-1.343-.432-2.716-.796-4.119-1.077v-12.282h-15v12.282c-1.403.282-2.776.645-4.119 1.077l-6.128-10.614-12.99 7.5 6.04 10.462c-1.107.953-2.162 1.965-3.152 3.039l-10.391-5.999-7.5 12.99 10.098 5.83c-.517 1.433-.943 2.909-1.286 4.417h-11.556v15h11.182c.281 1.61.654 3.189 1.132 4.722l-9.569 5.525 7.5 12.99 9.301-5.37c1.094 1.294 2.268 2.518 3.523 3.654l-5.322 9.218 12.99 7.5 5.226-9.052c1.627.57 3.301 1.037 5.021 1.383v10.416h15v-10.416c1.719-.345 3.394-.813 5.021-1.382l5.226 9.052 12.99-7.5-5.322-9.217c1.255-1.137 2.429-2.36 3.523-3.654l9.301 5.37 7.5-12.99-9.569-5.524c.478-1.533.851-3.112 1.132-4.723h11.184z" fill="#00baa0"/></g><g><circle cx="392.818" cy="236.528" fill="#00ddc1" r="21.472"/><g fill="#4ef8da"><circle cx="385.685" cy="225.638" r="3.337"/><circle cx="400.794" cy="241.621" r="4.542"/><circle cx="401.999" cy="228.975" r="3.337"/><circle cx="384.092" cy="244.366" r="3.337"/><circle cx="389.646" cy="234.528" r="2.216"/></g></g></g><g fill="#4ef8da"><circle cx="130.515" cy="123.307" r="5.681"/><circle cx="156.236" cy="150.518" r="7.732"/><circle cx="158.288" cy="128.988" r="5.681"/><circle cx="127.804" cy="155.19" r="5.681"/><circle cx="137.258" cy="138.442" r="3.773"/></g></g></svg>