<svg id="Capa_1" enable-background="new 0 0 512 512" height="512" viewBox="0 0 512 512" width="512" xmlns="http://www.w3.org/2000/svg"><g><g><circle cx="256" cy="256" fill="#ffe377" r="256"/></g><path d="m202.822 349.712 145.224 145.224c88.829-34.243 153.745-116.583 162.841-215.109l-119.09-119.09z" fill="#edbe00"/><path d="m387.613 156.241c-31.766-31.766-83.27-31.766-115.036 0l-16.577 16.576-16.576-16.576c-31.767-31.766-83.27-31.766-115.037 0-31.766 31.766-31.766 83.27 0 115.036l131.613 131.613 4.148-4.148 127.465-127.465c31.766-31.766 31.766-83.27 0-115.036z" fill="#ff6379"/><path d="m387.613 156.241c-31.766-31.766-83.27-31.766-115.036 0l-16.577 16.576v230.073l4.148-4.148 127.465-127.465c31.766-31.766 31.766-83.27 0-115.036z" fill="#ff1f3e"/></g></svg>