<svg id="Capa_1" enable-background="new 0 0 512 512" height="512" viewBox="0 0 512 512" width="512" xmlns="http://www.w3.org/2000/svg"><g><g><g><circle cx="256" cy="256" fill="#a160e4" r="256"/></g></g><path d="m386.815 169.026c-24.042-8.485-50.39 15.035-50.39 15.035l-160.288 4.103s-27.795-29.923-66.508-10.652-21.342 70.582-21.342 70.582l-9.268 37.917 222.035 222.035c116.016-20.599 205.008-119.338 210.651-239.873l-93.035-93.035c0-.002-7.813 2.373-31.855-6.112z" fill="#7a3eb4"/><g><path d="m271.546 335.339h-31.03l-78.429-161.046h187.888z" fill="#fa627c"/></g><g><path d="m240.515 335.339h31.032v44.266h-31.032z" fill="#fa627c"/></g><g><g><path d="m422.095 268.933-14.104-13.11c17.686-19.027 16.596-48.896-2.431-66.582-19.027-17.684-48.896-16.595-66.582 2.431l-14.104-13.11c24.915-26.805 66.992-28.341 93.796-3.425s28.34 66.992 3.425 93.796z" fill="#ff415b"/></g><g><circle cx="414.462" cy="262.097" fill="#ff415b" r="29.538"/></g></g><g><g><path d="m89.246 268.933c-24.916-26.804-23.379-68.882 3.425-93.797 26.803-24.913 68.88-23.38 93.796 3.425l-14.104 13.11c-17.687-19.027-47.556-20.118-66.582-2.431-19.027 17.686-20.117 47.555-2.431 66.582z" fill="#fa627c"/></g><g><circle cx="96.879" cy="262.097" fill="#fa627c" r="29.538"/></g></g><path d="m349.975 174.293h-93.975v205.313h15.547v-44.269z" fill="#ff415b"/></g></svg>