<svg id="Capa_1" enable-background="new 0 0 512 512" height="512" viewBox="0 0 512 512" width="512" xmlns="http://www.w3.org/2000/svg"><g><g><g><circle cx="256" cy="256" fill="#ff6379" r="256"/></g></g><path d="m170.463 388.549 120.996 120.996c111.745-15.486 200.438-103.081 217.549-214.298l-163.326-163.327z" fill="#ff415b"/><path d="m378.656 211.826c0-63.956-52.982-115.538-117.451-113.247-61.408 2.182-109.19 54.516-109.19 115.963v126.825c0 35.714 27.446 66.444 63.121 68.123 38.088 1.793 69.531-28.558 69.531-66.251 0-.067 0-.134 0-.201-.032-10.675 6.359-20.314 16.488-23.686 45.03-14.991 77.501-57.46 77.501-107.526z" fill="#ffccbd"/><path d="m265.767 98.516v291.066c11.686-11.957 18.901-28.303 18.901-46.344 0-.067 0-.134 0-.201-.032-10.675 6.359-20.314 16.488-23.686 45.03-14.99 77.501-57.459 77.501-107.526-.001-62.44-50.504-113.076-112.89-113.309z" fill="#ffbda9"/><g><path d="m195.449 290.206h-21.806v-73.579c0-50.797 41.326-92.123 92.123-92.123s92.124 41.326 92.124 92.123h-21.806c0-38.773-31.545-70.317-70.318-70.317s-70.317 31.544-70.317 70.317z" fill="#f9a58d"/></g><g><path d="m212.743 352.85v-21.806c13.273 0 24.07-10.797 24.07-24.07s-10.797-24.071-24.07-24.071c-6.531 0-12.643 2.573-17.211 7.243l-15.59-15.246c8.704-8.901 20.354-13.803 32.801-13.803 25.296 0 45.876 20.581 45.876 45.877s-20.58 45.876-45.876 45.876z" fill="#f9a58d"/></g><path d="m265.767 124.504v21.806c38.773 0 70.318 31.544 70.318 70.317h21.806c-.001-50.797-41.328-92.123-92.124-92.123z" fill="#d37f6c"/></g></svg>