<svg id="Capa_1" enable-background="new 0 0 512 512" height="512" viewBox="0 0 512 512" width="512" xmlns="http://www.w3.org/2000/svg"><g><g><g><g><circle cx="256" cy="256" fill="#00ddc1" r="256"/></g></g></g><path d="m165.834 376.185 132.337 132.337c99.244-16.452 179.195-89.977 205.008-185.729l-215.29-215.289z" fill="#00baa0"/><g><path d="m204.579 355.261c0 28.399 23.022 51.421 51.421 51.421s51.421-23.022 51.421-51.421z" fill="#ffccbd"/><g><circle cx="192.671" cy="350.191" fill="#ffccbd" r="37.357"/><circle cx="318.468" cy="350.191" fill="#ffbda9" r="37.357"/></g><path d="m327.58 361.761h-143.16l39.691-254.257h63.778z" fill="#ffccbd"/><path d="m327.58 361.761h-71.58v-254.257h31.889z" fill="#ffbda9"/><g><path d="m321.901 373.75h-132.663c-4.797 0-8.685-3.888-8.685-8.685s3.888-8.685 8.685-8.685h132.664c4.797 0 8.685 3.888 8.685 8.685s-3.888 8.685-8.686 8.685z" fill="#d37f6c"/></g><path d="m204.579 355.261c0 28.399 23.022 51.421 51.421 51.421s51.421-23.022 51.421-51.421z" fill="#ffccbd"/><path d="m307.421 355.261h-51.421v51.421c28.399 0 51.421-23.022 51.421-51.421z" fill="#ffbda9"/></g></g></svg>