<svg id="Capa_1" enable-background="new 0 0 512 512" height="512" viewBox="0 0 512 512" width="512" xmlns="http://www.w3.org/2000/svg"><g><g><g><g><g><circle cx="256" cy="256" fill="#a160e4" r="256"/></g></g></g></g><path d="m384.234 135.036-27.701-27.701-6.238 44.954-28.376-28.376-5.476 43.698-28.68-28.68-7.082 41.161-40.303-40.303-3.289 15.844-30.812-30.812-1.326 15.78-32.737-32.737-1.991 52.204-31.982-31.982-1.674 115.589-41.424-41.424 25.8 92.64 14.67 14.67-1.179 81.364-17.075 17.491 100.794 100.794c12.351 1.83 24.987 2.79 37.847 2.79 141.385 0 256-114.615 256-256 0-2.492-.045-4.974-.116-7.449l-120.667-120.668z" fill="#7a3eb4"/><g><path d="m129.426 124.24c6.664 0 12.066 5.402 12.066 12.067v79.934h10.001v-100.003c0-6.627 5.373-12 12-12h.133c6.627 0 12 5.373 12 12v100.002h10v-83.001c0-6.627 5.373-12 12-12h.133c6.627 0 12 5.373 12 12v83.001h10v-67.966c0-6.627 5.373-12 12-12h.133c6.627 0 12 5.373 12 12v260.141h-126.533v-272.11c0-6.663 5.402-12.065 12.067-12.065z" fill="#f9a58d"/><path d="m129.426 124.24c6.664 0 12.066 5.402 12.066 12.067v79.934h10.001v-100.003c0-6.627 5.373-12 12-12h.133c6.627 0 12 5.373 12 12v100.002h5v192.175h-63.267v-272.11c0-6.663 5.402-12.065 12.067-12.065z" fill="#ffbda9"/><g fill="#ffccbd"><circle cx="131.922" cy="287.985" r="41.866"/><path d="m120.559 290.31-29.155 7.803-21.579-81.379c-2.143-8.006 2.61-16.234 10.617-18.377l.161-.043c8.006-2.143 16.234 2.61 18.377 10.617z"/></g></g><g><path d="m382.574 124.24c-6.664 0-12.066 5.402-12.066 12.067v79.934h-10.001v-100.003c0-6.627-5.373-12-12-12h-.133c-6.627 0-12 5.373-12 12v100.002h-10v-83.001c0-6.627-5.373-12-12-12h-.133c-6.627 0-12 5.373-12 12v83.001h-10v-67.966c0-6.627-5.373-12-12-12h-.133c-6.627 0-12 5.373-12 12v260.141h126.534v-272.11c-.001-6.663-5.403-12.065-12.068-12.065z" fill="#ffbda9"/><path d="m382.574 124.24c-6.664 0-12.066 5.402-12.066 12.067v79.934h-10.001v-100.003c0-6.627-5.373-12-12-12h-.133c-6.627 0-12 5.373-12 12v100.002h-5v192.175h63.267v-272.11c0-6.663-5.402-12.065-12.067-12.065z" fill="#f9a58d"/><g fill="#df9280"><circle cx="380.078" cy="287.985" r="41.866"/><path d="m391.441 290.31 29.155 7.803 21.579-81.379c2.143-8.006-2.61-16.234-10.617-18.377l-.161-.043c-8.006-2.143-16.234 2.61-18.377 10.617z"/></g></g><g><path d="m326.623 187.361c-17.046-17.046-44.683-17.046-61.729 0l-8.894 8.895-8.895-8.895c-17.046-17.046-44.683-17.046-61.729 0s-17.046 44.683 0 61.729l70.624 70.623 2.226-2.226 68.398-68.398c17.045-17.045 17.045-44.682-.001-61.728z" fill="#ff6379"/><path d="m326.623 187.361c-17.046-17.046-44.683-17.046-61.729 0l-8.894 8.895v123.457l2.226-2.226 68.398-68.398c17.045-17.045 17.045-44.682-.001-61.728z" fill="#ff1f3e"/></g></g></svg>